<svg xmlns="http://www.w3.org/2000/svg" height="250.25" viewBox="0 0 250 250.24942" width="250"><g transform="matrix(1.25 0 0 -1.25 -258.5 621.13)"><path d="m323.52 462.61-8.9167 1.3136-5.2552 8.6346 0.28115-13.234 7.3201-3.0033 6.5707 6.2886z" stroke="#003660" stroke-miterlimit="10" stroke-width=".37517" fill="#febc11"/><g stroke="#003660" stroke-miterlimit="10" fill="none"><path d="m294.15 460.64-16.517-1.3136m18.49-1.32-38.45-11.67m39.762 9.6041-55.841-36.602m57.154 33.974-61.378-53.778m61.378 49.179-59.407-65.039m60.064 61.097-56.123-76.488m131.11 11.074-54.34 69.261l-0.0931 0.095 56.779-52.556m-58.094 47.3 43.547-89.252m-41.576 89.908 48.52-77.332m-49.835 86.531 54.809-37.26m-54.809 39.23 46.175-20.459m-44.205 21.866 23.058-2.5341" stroke-width=".65726"/><path d="m306.25 436.99-11.45-108.49m11.919-1.6897 0.65726 108.3" stroke-width=".46920"/><path d="m281.57 330.47 25.716 116.75m1.7828-0.18806 11.638-118.16m-16.62 117.22-52.27-91.88m60.815 91.223 24.119-112.62m-21.491 110.65 36.038-100.14" stroke-width=".65726"/><path d="m304.09 439.14-39.69-97.41" stroke-width=".46920"/></g><g fill="#fff"><path d="m227.33 443.18c0.65726 1.2205 1.7828 3.0973 2.0649 3.1913 0.4692 0.18713 3.9417 7.133 6.6638 9.1038 2.6281 1.9708 2.7212 3.0973 3.0023 3.5665 0.37611 0.4692 6.5698 7.3201 9.0098 8.5406 2.441 1.1255 1.6897 0.84439 2.8162 2.252 1.1255 1.5016 11.543 7.9774 14.077 8.9167 2.441 1.0306 3.9417 2.0639 3.9417 2.0639s13.234 5.7244 16.8 5.7244c3.6596 0 4.3169 1.0324 4.7861 1.0324 0.56229 0 14.735 1.9708 16.236 1.4076 0 0 5.7254 0.37612 8.7287-0.4692 3.0023-0.84435 1.7828-0.28114 3.1904-0.28114 1.3145 0 4.787-0.56321 5.4433-1.0324 0.65633-0.46923 1.7837-0.2821 1.7837-0.2821s3.0963-0.18713 3.2844-0.84438c0.18806-0.6563 0.84439-0.37516 1.5016-0.37516 0.65725 0 5.2553-0.56324 7.6012-2.44 4.7861-3.8476 7.4142-3.0042 8.2595-3.4734 0.84531-0.4692 0.84531 0.18805 1.9699-1.0306 1.1274-1.1274 3.0042-1.5966 3.0042-1.5966s6.2877-3.7536 5.6304-3.4725c0.095-0.094 1.3146-0.37612 2.2529-1.3145 0.28115-0.28019 5.1622-2.1579 8.0705-6.6629 0 0 1.4086-0.75035 1.5026-1.5007 0.18713-0.65725 1.2195-0.7513 1.2195-0.7513s6.3817-2.7212 7.8834-8.9158c0.18805-0.65726 1.6906-1.6897 1.6906-1.6897s3.0964-3.7536 3.9407-6.1005c0.46923-1.3136 1.3145-2.6281 1.9708-3.5665h-26.372s0 0.094-0.094 0.094c-2.9083 3.2844-4.8801 5.6314-4.8801 5.6314s-1.9708 1.9708-3.0033 2.6281c-1.0315 0.65629-3.6596 1.0324-3.6596 1.9708 0 1.0324-4.0357 4.9741-8.2585 5.9125-4.2228 1.0324-6.4767 2.9092-6.4767 2.9092s-4.4109 3.0973-6.7578 2.44c-2.251-0.65726-4.7851 0.28114-5.5354 1.3145-0.65726 0.84346-16.519 3.2844-19.24 0.93843-2.6281-2.2529-7.5082-0.65726-7.5082-0.65726s-6.9449-0.28117-7.6013-2.2529c-0.65822-1.9699-3.6605-1.6897-4.0357-1.6897-0.28115 0-9.5731-1.5947-15.204-7.6013-5.5373-5.9125-6.5698-4.9741-7.4142-5.9125-0.84436-1.0324-4.692-3.5665-5.7254-5.6314-0.0931 0-0.0931-0.094-0.0931-0.094h-26.466"/><path d="m253.79 443.18c-0.9384-1.7828-3.2844-4.2228-3.2844-4.2228s-7.6022-9.1969-7.6022-14.546c0-5.2552-2.252-2.9092-3.2844-7.227-0.9384-4.3168-1.9718-7.3201-1.9718-7.3201s-1.4076-8.0714-1.1255-12.483h-21.398c0.094 0.47013 0.094 0.84531 0.094 0.93932 0 0.65726 0.18711 3.1904 0.18711 3.1904s0 7.6972 0.75129 8.7287c0.84438 1.0324 0.65632 5.1622 0.65632 5.1622s1.8768 9.1969 2.8152 10.323c1.0324 1.2195 1.0324 2.8152 1.0324 2.8152s3.6605 10.135 4.975 11.263c1.3136 1.1255 1.1255 2.346 1.1255 2.346s0.18805 0.37518 0.56323 1.0315h26.466"/><path d="m385.65 443.18c0.56228-0.74941 1.0315-1.3136 1.0315-1.3136s2.8171-6.5688 4.4118-8.6346c1.6897-2.1589 1.5016-3.8477 1.5016-3.8477s3.4724-5.4433 3.0973-10.417c-0.094-1.7828 0.84436-3.0963 0.84436-3.0963s0.5642-5.3502 1.0334-7.7903c0.84342-4.3168 0.18617-2.346 0.18617-2.346s-0.18617-4.1288 0.28303-8.3535h-21.211c0 0.18898 0.18709 5.6323-0.37519 7.8843-0.7513 2.346-0.7513 4.3168-0.7513 4.3168s-0.9384 6.2886-1.9708 8.2585c-0.93843 1.9718-1.5957 4.5999-1.5957 4.5999s-2.346 6.944-3.9417 8.6328c-1.6897 1.5966-2.7212 4.5989-2.7212 4.5989s-3.1913 4.2238-6.1946 7.5082h26.372"/><path d="m236.52 397.38c0.0931-0.37423 0.0931-0.74942 0.18711-1.0306 0.65726-3.9426 0.28209-5.9134 0.28209-5.9134s0.75129-2.6281 1.5947-6.0065l-22.336-2.2529c-0.37611 2.2529-0.75129 4.693-0.75129 5.7254 0 2.346 0.094 4.3169-0.28114 4.8801-0.28209 0.37519-0.094 3.0982-0.094 4.598h21.398"/><path d="m384.62 351.58c-0.65633-1.5016-1.1255-2.6281-1.1255-2.6281s-1.3145-1.5007-3.2844-5.8185c-0.75223-1.6887-2.346-2.8152-3.0042-4.1297-0.65726-1.3126-5.6304-3.2844-5.6304-5.0672 0-0.37611-2.9102-2.1589-2.9102-2.1589s-5.4433-4.7861-8.9158-9.1029c-1.0324-1.2214-1.6897-0.9384-2.346-1.5956-0.65633-0.65726-7.1321-4.692-9.1029-5.3502-1.9718-0.65725-3.9417-1.7828-3.9417-1.7828s-1.9718-1.0324-6.5707-2.6281l-2.8152-1.0324c-2.8152-0.65633-3.4724-1.1255-3.4724-1.1255s-9.7611-2.8162-11.919-2.6281c-2.1589 0.094-2.1589 0-2.6281-0.37519-0.4692-0.28206-10.417-0.65725-12.2-0.28206-1.8768 0.28206-2.534 0.094-2.534 0.094s-8.3526 0.18805-9.7611 1.0324c-1.3126 0.84439-4.2228 0.65725-4.2228 0.65725s-9.2909 1.7828-10.135 2.8162l-2.8152 0.84342c-2.8152 0.7513-4.5989 1.5957-7.6022 3.2844-0.094 0-4.5049 2.2539-4.5989 2.346-3.3784 1.4085-6.4757 3.8495-6.4757 3.8495s-9.1038 6.2877-10.981 8.5397c-1.9708 2.1579-2.252 1.8768-2.7212 2.1579-0.56324 0.37611-1.9708 2.0649-1.9708 2.0649s-1.9708 1.9708-2.8161 3.1923c-0.75035 1.1246-5.8185 6.5688-7.8824 10.228-1.3145 2.2529-2.2529 3.8496-2.8162 4.5989h25.527c4.3178-4.9741 5.5383-5.4433 5.5383-5.4433s7.8824-7.6022 10.51-8.5406c2.7221-1.0315 6.1936-3.2844 6.2886-3.3775l4.0348-2.6281c0.56324-0.84531 1.9708-2.0648 6.4767-2.346 4.598-0.37611 18.019-1.6897 20.928-2.441 2.9092-0.75035 6.8509-0.75035 7.8834 0 1.1265 0.7513 5.1612 2.252 6.5697 1.7828 1.4086-0.56229 5.3502 0.18806 5.3502 0.18806l4.9732 1.6897c2.9092 1.9708 7.8843 2.346 7.8843 2.346s1.3126 0.47012 1.9699 1.5956c0.65821 1.1255 3.8476 3.4715 4.5049 3.1904 0.65726-0.37423 4.693 3.7546 4.9741 4.881 0.2821 1.8768 5.8185 4.3169 7.039 6.0997 0.7513 1.1264 1.4076 2.0648 2.1589 3.0032h24.588"/><path d="m227.42 351.58c-0.28208 0.56325-0.37517 0.75035-0.37517 0.75035s-0.9384 1.5016-2.0649 3.6615c-0.56323 1.1255-1.4076 2.6271-2.1589 4.8791-1.6897 4.4118-2.1589 4.787-2.1589 4.787s-2.158 6.2886-2.346 7.4141c-0.18711 1.1255-0.4692 3.7536-0.9384 4.1288-0.28115 0.18898-0.75035 2.44-1.2196 4.9741l22.43 2.2529c0.8453-3.4725 1.8778-7.6022 2.3469-10.511 1.0324-6.0065 2.346-5.6304 2.346-5.6304s0.18806-2.7231 1.7828-6.0075c1.0324-2.346 2.9092-4.692 5.4442-7.8824 0.9384-1.0334 1.6887-1.9718 2.4391-2.8162h-25.527"/><path d="m360.03 351.58c0.9384 1.3136 1.8778 2.535 2.8162 3.6596 1.6887 1.9718 3.5656 3.6615 3.9398 4.788 0.56416 1.4998 2.8162 7.4132 3.1923 8.7277 0.28114 1.3136 3.0963 6.0996 3.0963 6.0996s2.6281 6.2886 2.347 7.9783c-0.37612 1.5947 0.65633 3.6596 0.65633 3.6596l0.65725 6.8509 0.0941 4.0348h21.211c0-0.56136 0.0931-1.2186 0.18709-1.8768 0.18713-1.6887 0-2.8152 0-2.8152s-0.37611-7.8843-1.0324-10.042c-0.65728-2.1579-0.46923-2.4391-0.46923-2.4391s-1.4076-4.9741-2.8162-10.794c-0.4692-1.9708-2.1579-2.158-2.1579-3.0964 0-1.0324-2.441-4.4109-4.3178-8.0723-0.4692-1.0315-1.7828-4.3159-2.8152-6.6629h-24.588"/></g><path d="m331.5 330.47c2.9092 1.9708 7.8843 2.346 7.8843 2.346s1.3126 0.47015 1.9699 1.5957c0.6582 1.1255 3.8476 3.4715 4.5049 3.1904 0.65725-0.37423 4.693 3.7546 4.9741 4.881 0.28209 1.8768 5.8185 4.3168 7.039 6.0996 1.6897 2.5341 3.3794 4.693 4.975 6.6629 1.6888 1.9718 3.5656 3.6615 3.9398 4.7879 0.56417 1.4998 2.8162 7.4132 3.1923 8.7277 0.28115 1.3136 3.0964 6.0996 3.0964 6.0996s2.6281 6.2886 2.347 7.9783c-0.37611 1.5947 0.65632 3.6596 0.65632 3.6596l0.65726 6.8509 0.094 4.0348s0.28115 5.6323-0.37517 7.8843c-0.75129 2.346-0.75129 4.3168-0.75129 4.3168s-0.9384 6.2886-1.9708 8.2585c-0.93841 1.9718-1.5957 4.5999-1.5957 4.5999s-2.346 6.944-3.9417 8.6328c-1.6897 1.5966-2.7212 4.5989-2.7212 4.5989s-3.2844 4.3178-6.2886 7.6022c-2.9083 3.2844-4.8801 5.6314-4.8801 5.6314s-1.9708 1.9708-3.0033 2.6281c-1.0315 0.65632-3.6596 1.0324-3.6596 1.9708 0 1.0324-4.0357 4.9741-8.2585 5.9125-4.2228 1.0324-6.4767 2.9092-6.4767 2.9092s-4.4109 3.0973-6.7578 2.44c-2.251-0.65726-4.7851 0.28115-5.5354 1.3145-0.65726 0.84343-16.519 3.2844-19.24 0.9384-2.6281-2.2529-7.5082-0.65726-7.5082-0.65726s-6.9449-0.28114-7.6013-2.2529c-0.6582-1.9699-3.6605-1.6897-4.0357-1.6897-0.28115 0-9.573-1.5947-15.204-7.6013-5.5373-5.9125-6.5698-4.9741-7.4141-5.9125-0.84438-1.0324-4.692-3.5665-5.7254-5.6314-0.9384-1.7837-3.3775-4.3168-3.3775-4.3168s-7.6022-9.1969-7.6022-14.546c0-5.2552-2.252-2.9092-3.2844-7.227-0.93841-4.3168-1.9718-7.3201-1.9718-7.3201s-1.5947-9.573-0.9384-13.514c0.65726-3.9426 0.28208-5.9134 0.28208-5.9134s3.0033-10.605 3.9417-16.518c1.0324-6.0065 2.346-5.6304 2.346-5.6304s1.0324-6.2886 7.227-13.89c6.2877-7.6022 7.9774-8.2595 7.9774-8.2595s7.8824-7.6022 10.51-8.5406c2.7221-1.0315 6.1937-3.2844 6.2886-3.3775l4.0348-2.6281c0.56323-0.84531 1.9708-2.0649 6.4767-2.346 4.598-0.37612 18.019-1.6897 20.928-2.441 2.9092-0.75035 6.8509-0.75035 7.8833 0 1.1265 0.75128 5.1612 2.252 6.5698 1.7828 1.4086-0.56229 5.3502 0.18805 5.3502 0.18805l4.9732 1.6897zm3.4725-20.178c-2.8152-0.65632-3.4725-1.1255-3.4725-1.1255s-9.7611-2.8162-11.919-2.6281c-2.1589 0.094-2.1589 0-2.6281-0.37517-0.4692-0.28208-10.417-0.65726-12.2-0.28208-1.8768 0.28208-2.5341 0.094-2.5341 0.094s-8.3525 0.18806-9.7611 1.0324c-1.3126 0.84437-4.2228 0.65726-4.2228 0.65726s-9.291 1.7828-10.135 2.8162l-2.8152 0.84343c-2.8152 0.75129-4.5989 1.5957-7.6022 3.2844-0.094 0-4.5049 2.2539-4.5989 2.346-3.3784 1.4085-6.4757 3.8495-6.4757 3.8495s-9.1038 6.2877-10.981 8.5397c-1.9708 2.158-2.252 1.8768-2.7212 2.158-0.56323 0.37611-1.9708 2.0649-1.9708 2.0649s-1.9708 1.9708-2.8162 3.1923c-0.75034 1.1246-5.8185 6.5688-7.8824 10.228-2.0658 3.6605-3.1913 5.3493-3.1913 5.3493s-2.6281 4.0357-4.2238 8.5406c-1.6897 4.4118-2.1589 4.787-2.1589 4.787s-2.158 6.2886-2.346 7.4141c-0.18711 1.1255-0.4692 3.7536-0.9384 4.1288-0.56323 0.28209-1.8768 8.4475-1.8768 10.7 0 2.346 0.094 4.3168-0.28114 4.8801-0.28209 0.46921 0 4.8801 0 5.5373 0 0.65726 0.18711 3.1904 0.18711 3.1904s0 7.6972 0.75129 8.7287c0.84438 1.0324 0.65632 5.1622 0.65632 5.1622s1.8768 9.1969 2.8152 10.323c1.0324 1.2196 1.0324 2.8152 1.0324 2.8152s3.6605 10.135 4.975 11.263c1.3136 1.1255 1.1255 2.346 1.1255 2.346s2.1589 4.1288 2.6281 4.2228c0.46921 0.18711 3.9417 7.133 6.6638 9.1038 2.6281 1.9708 2.7212 3.0973 3.0023 3.5665 0.37611 0.4692 6.5698 7.3201 9.0098 8.5406 2.441 1.1255 1.6897 0.84438 2.8162 2.252 1.1255 1.5016 11.543 7.9774 14.077 8.9167 2.441 1.0306 3.9417 2.0639 3.9417 2.0639s13.234 5.7244 16.8 5.7244c3.6596 0 4.3168 1.0324 4.786 1.0324 0.56229 0 14.735 1.9708 16.236 1.4076 0 0 5.7254 0.37612 8.7287-0.4692 3.0023-0.84437 1.7828-0.28114 3.1904-0.28114 1.3145 0 4.787-0.56323 5.4433-1.0324 0.65632-0.46921 1.7837-0.28209 1.7837-0.28209s3.0964-0.18712 3.2844-0.84438c0.18806-0.65631 0.84438-0.37517 1.5016-0.37517 0.65726 0 5.2552-0.56323 7.6013-2.44 4.786-3.8476 7.4141-3.0042 8.2594-3.4734 0.84532-0.4692 0.84532 0.18806 1.9699-1.0306 1.1274-1.1274 3.0042-1.5966 3.0042-1.5966s5.5373-3.2844 4.8801-3.0033c0.094-0.094 2.0649-0.84532 3.0033-1.7837 0.28115-0.28021 5.1622-2.158 8.0705-6.6629 0 0 1.4085-0.75034 1.5026-1.5007 0.18712-0.65726 1.2196-0.75129 1.2196-0.75129s6.3817-2.7212 7.8833-8.9158c0.18806-0.65726 1.6906-1.6897 1.6906-1.6897s3.0964-3.7536 3.9407-6.1006c0.84531-2.346 3.0023-4.8801 3.0023-4.8801s2.8171-6.5688 4.4118-8.6346c1.6897-2.1589 1.5016-3.8476 1.5016-3.8476s3.4725-5.4433 3.0973-10.417c-0.094-1.7828 0.84438-3.0964 0.84438-3.0964s0.56417-5.3502 1.0334-7.7903c0.84343-4.3168 0.18618-2.346 0.18618-2.346s-0.18618-5.4433 0.47014-10.23c0.18711-1.6888 0-2.8152 0-2.8152s-0.37612-7.8843-1.0324-10.042c-0.65726-2.158-0.46921-2.4391-0.46921-2.4391s-1.4076-4.9741-2.8162-10.794c-0.4692-1.9708-2.158-2.158-2.158-3.0964 0-1.0324-2.441-4.4109-4.3178-8.0723-0.75128-1.6888-3.9407-9.291-3.9407-9.291s-1.3145-1.5007-3.2844-5.8185c-0.75223-1.6888-2.346-2.8152-3.0042-4.1297-0.65726-1.3126-5.6304-3.2844-5.6304-5.0672 0-0.37611-2.9102-2.1589-2.9102-2.1589s-5.4433-4.786-8.9158-9.1029c-1.0324-1.2214-1.6897-0.93841-2.346-1.5957-0.65632-0.65725-7.1321-4.692-9.1029-5.3502-1.9718-0.65726-3.9417-1.7828-3.9417-1.7828s-1.9718-1.0324-6.5707-2.6281l-2.8152-1.0324z" stroke="#003660" stroke-linecap="round" stroke-miterlimit="10" stroke-width="1.8768" fill="#febc11"/><path d="m260.64 443.27-1.9708-86.906 41.577-1.5957s0.65632 4.5999 5.6304 4.5999 5.9125-3.9426 5.6314-4.9741c-0.37612-0.93934 38.009-1.9718 38.009-1.9718l3.5665 88.22s-3.9417-1.3136-5.2552 0c-1.3145 1.3136-4.5989 0.93841-4.5989 0.93841s-3.2854-1.3136-4.975-1.5957c-1.6878-0.37612-7.6013-1.0324-9.5721 0.65725-1.9708 1.5947-8.2585 1.3136-10.23 1.3136-1.9708 0-7.3201-1.6888-7.6013-2.6272-0.37518-1.0324-3.6615-2.346-3.2844-3.6615 0.28115-1.3126-2.0658 3.2854-3.3794 4.3178-1.3136 0.9384-3.9407 3.2844-5.2562 2.9102-1.3126-0.28209-9.9473 0.65631-11.918 0-1.9708-0.6582-6.5698-0.93935-8.2595-0.6582-1.5947 0.37611-9.5721-0.65632-10.886 0.37611-1.3145 0.9384-2.9102 0.65632-4.3178 0.9384-1.3136 0.37518-2.9092-0.28208-2.9092-0.28208z" stroke="#003660" stroke-miterlimit="10" stroke-width=".84438" fill="#febc11"/><g stroke="#003660" stroke-miterlimit="10" fill="none"><path d="m307.57 435.67-1.6897-76.299m-30.033 76.957h7.8833v-9.9482h-7.8833v9.9482z" stroke-width=".46920"/><path d="m271.9 441.96-1.4076-77.614 30.408-1.3145s3.2844-1.0324 3.2844-2.7212" stroke-width=".37517"/><path d="m343.23 441.58-2.347-78.928-23.463-1.3145s-3.9417 0.37612-7.6013-3.0023" stroke-width=".46920"/><path d="m300.25 354.77s1.5947-2.346 5.7244-2.346c4.1288 0 5.0672 1.3145 5.5373 1.9718" stroke-width=".65726"/></g><path d="m300.25 354.77c-0.095 0.37611 1.2186 2.8162 1.6888 3.0982 0.37517 0.37424 1.5016 1.5016 3.9417 1.5016 2.44-0.094 5.7244-1.0324 5.6314-4.9741-0.094-1.0334-3.3803-1.8777-5.4442-1.9718-1.2196 0-5.3483 0.75222-5.8175 2.346z" stroke="#003660" stroke-miterlimit="10" stroke-width=".84438" fill="#febc11"/><path d="m319.96 459.32h-7.6022m8.3526 0.84438h-6.1006m7.1321 0.75129h-2.8152m3.6615 0.65631h-2.6281m3.0973 0.56418h-2.6281m-1.0334-3.6605h-6.0996m-1.7828-104.08 7.227 2.346 29.28-1.3145 1.5966 84.56m-33.036-61.003 2.1598-0.28208m1.9699-0.18712s2.347-0.84532 2.8162-0.4692m1.6878-0.37612s2.347-0.18711 3.2854 0.37612m1.6888-0.18712s2.8162 0 3.9426 0.4692m2.346 0.18712s3.5665 0.18712 4.1297 0.65632m-34.35-5.4433 1.4067 0.84532m2.1598 0.93934s3.8476 1.9699 6.1006 1.3126m1.3136-0.28209s2.8152 0.28209 3.1913-0.18711m1.7818-0.65632s3.1923-0.18712 3.8495-0.4692m2.158-0.18712s1.9699-0.47014 3.7536 0.18712m1.1265 0.18711s0.84438-0.18711 3.0042 0.28209m1.6878-0.18712s0.93935-0.6582 2.44 0.65632m-33.973-5.9134s1.7837 2.44 3.7546 2.44c2.5331 0 4.3168 0.56323 5.6304 0.189m2.1598 0.18711h1.969m2.6281-0.4692 2.441-0.84531m1.5016 0 3.6596 0.18899m2.44 0.0931 3.0033 0.37611m1.9708 0.18712s2.1589 0.28209 2.6281 0.75129m-33.692-5.9134s2.346 2.346 3.8476 2.346 3.9417 0.18806 4.1297-0.37517m1.3136 0 3.2844-0.46921m1.7837-0.18711h2.158m2.8152-0.28209 3.0042 0.28209m1.7828-0.18806s2.6281 0 3.1913 0.37517m1.9718 0s4.1278 0.84438 5.2543 1.7828m-34.819-5.7244s1.9718 1.5957 3.9426 1.7837c1.9708 0.18712 3.0023 0.56229 3.9407 0.18712 1.2205-0.4692 0.65726-0.37518 0.65726-0.37518m1.6897 0 2.158-0.28114m1.9718-0.18806s2.346-0.84437 2.8152-0.4692m1.5957-0.37517s2.346-0.189 3.3784 0.37517m1.5957-0.18806s2.8152 0 3.9417 0.46921m2.347 0.18805s3.6586 0.18806 4.1278 0.65726m-34.066-5.1622s1.1255 2.5331 8.1645 2.5331m-7.6953-4.692s0.9384 1.9718 2.5331 1.9718c1.5957 0 2.9092 0.28115 3.0973 0m15.109 47.112 3.6605 0.18806m2.44 0.18806 3.0033 0.28208m1.9718 0.18712s2.158 0.37517 2.6281 0.84438m-33.693-5.9125s2.252 2.252 3.7536 2.252 4.0357 0.18806 4.1297-0.28115m1.3136 0 3.3794-0.56323m1.7818-0.094h2.1598m2.8152-0.37517 2.9092 0.37517m1.8768-0.18805s2.6281 0 3.0973 0.28208m1.9718 0s4.1278 0.84438 5.3483 1.8768m-34.93-5.85s1.9718 1.6897 4.0357 1.8768c1.9708 0.094 3.0033 0.56229 3.9426 0.094 1.1255-0.47015 0.65631-0.28115 0.65631-0.28115m1.5957 0 2.158-0.37611m1.9718-0.0931s2.346-0.84532 2.8152-0.56323m1.6897-0.28209s2.346-0.18805 3.2844 0.28209m1.6897-0.18806s2.8152 0 3.9407 0.56229m2.347 0.189s3.5656 0.0931 4.1297 0.65632m-34.35-5.3493 1.4076 0.84438m2.1589 1.0334s3.8476 1.9699 6.0996 1.3126m1.3136-0.37424s2.8162 0.37424 3.1923-0.189m1.7818-0.65631s3.1923-0.0931 3.8486-0.46921m2.1589-0.18805s1.9708-0.4692 3.7536 0.18805m1.1265 0.18712s0.84438-0.18712 3.0023 0.28209m1.6906-0.0931s0.93841-0.6582 2.4391 0.65632m-33.973-6.0065s1.7828 2.5331 3.7536 2.5331c2.5341 0 4.3178 0.47014 5.6314 0.095m2.158 0.18712h1.9718m2.6281-0.4692 2.4391-0.84344m1.5026 0 3.6596 0.18618m2.44 0.18806 3.0042 0.28208m1.9699 0.18712s2.158 0.28208 2.6272 0.84531m-33.692-6.0065s2.347 2.346 3.8486 2.346 3.9417 0.18711 4.1297-0.37518m1.3136 0 3.2844-0.4692m1.7837-0.18805h2.1589m2.8152-0.28115 3.0033 0.28115m1.7828-0.094s2.6281 0 3.1904 0.28208m1.9708 0s4.1297 0.84438 5.2571 1.8778m-34.82-5.8194s1.9708 1.6888 3.9417 1.7828c1.9708 0.18712 3.0033 0.56323 3.9417 0.18712 1.2205-0.46921 0.65726-0.28115 0.65726-0.28115m1.6888 0 2.1589-0.37517m1.9718-0.18806s2.346-0.84438 2.8152-0.4692m1.5947-0.37518s2.346-0.094 3.3794 0.37518m1.5947-0.18712s2.8162 0 3.9417 0.56229m2.346 0.094s3.6605 0.18806 4.1297 0.65726m-34.35-5.2552 1.5026 0.84437m2.158 0.93841s3.7536 1.9708 6.1006 1.3136m1.3136-0.28115s2.8162 0.28115 3.0973-0.18806m1.8778-0.65631s3.0954-0.18806 3.7536-0.46921m2.158-0.18805s1.9708-0.46921 3.8486 0.18805m1.1255 0.18712s0.84437-0.18712 3.0033 0.28209m1.5957-0.18806s1.0324-0.65726 2.5341 0.65726m-34.068-5.9134s1.7837 2.441 3.8486 2.441c2.5341 0 4.2228 0.56323 5.5373 0.18617m2.158 0.189h1.9708m2.7221-0.4692 2.4391-0.84438m1.5026 0 3.5665 0.18618m2.5341 0.095 3.0023 0.37423m1.9708 0.189s2.1589 0.2802 2.6281 0.74941m-33.692-5.9116s2.2529 2.346 3.7546 2.346c1.5016 0 4.0357 0.18805 4.1288-0.37424m1.3145 0 3.3775-0.4692m1.7847-0.18806h2.158m2.8162-0.28114 2.9083 0.28114m1.8777-0.18805s2.6272 0 3.0964 0.37611m1.9708 0s4.1297 0.84344 5.3502 1.7828m-34.913-5.7244s1.9708 1.5947 4.0357 1.7818c1.9708 0.18806 3.0033 0.56417 3.9417 0.18806 1.1265-0.46921 0.65726-0.37518 0.65726-0.37518m-3.1913 58.657s2.7221 1.1265 6.4767 1.0315m1.4998 0s2.6281 0.095 3.0973-0.18712m1.6897-0.4692s3.6605 0 4.3178-1.0315m1.3126-0.189s1.5966-0.9384 3.4734 0m1.3136-0.0931s2.1589 0 3.0973 0.75035m1.6888 0.37517s1.5026-0.18711 2.1589 1.1265m-34.067-4.1288s-0.84532 1.0315 2.6281 1.9699m-2.9092-4.8801 1.4076 0.75129m2.158 1.0324s3.8486 1.9699 6.1006 1.3136m1.4076-0.37517s2.7221 0.37517 3.0964-0.094m1.7847-0.65632s3.1904-0.18806 3.8467-0.56417m2.1589-0.094s1.9708-0.56229 3.7546 0.094m1.1255 0.18806s0.84532-0.18806 3.0033 0.37611m1.6897-0.18806s0.93841-0.65726 2.441 0.65726m-33.974-5.9125s1.7828 2.4391 3.7536 2.4391c2.5341 0 4.3168 0.56323 5.6304 0.18712m2.1589 0.189h1.9718m2.6272-0.56324 2.4391-0.84437m1.5026 0 3.6605 0.18712m2.44 0.18805 3.0023 0.28115m1.9718 0.18805s2.158 0.37424 2.6272 0.84344m-33.693-5.9116s2.3479 2.2529 3.8495 2.2529c1.5007 0 3.9417 0.18712 4.1288-0.28208m1.3136 0 3.2854-0.4692m1.7837-0.18806h2.158m2.8162-0.37517 3.0023 0.37517m1.7837-0.18712s2.6272 0 3.1904 0.37518m1.9708 0s4.1307 0.75128 5.2562 1.7837m-34.819-5.8194s1.9708 1.6897 3.9417 1.8768c1.9708 0.094 3.0033 0.56323 3.9417 0.094 1.2196-0.4692 0.65726-0.28114 0.65726-0.28114m1.6888 0 2.158-0.37518m1.9708-0.094s2.347-0.84437 2.8162-0.56323m1.5947-0.28114s2.347-0.18806 3.3794 0.28114m1.5957-0.094s2.8152 0 4.0366 0.4692m2.251 0.18805s3.6615 0.094 4.1307 0.65632m-33.787-6.0065s1.8768 2.535 3.8476 2.535c2.5341 0 4.3178 0.4692 5.6314 0.0922m2.0639 0.189h2.0658m2.6281-0.4692 2.4391-0.84532m1.5026 0 3.6596 0.18712m2.44 0.18805 3.0042 0.28115m1.9699 0.189s2.158 0.2802 2.6272 0.84437m-33.691-6.0065s2.346 2.346 3.7536 2.346c1.5016 0 4.0357 0.189 4.1297-0.37517m1.4076 0 3.2844-0.4692m1.7837-0.18712h2.1589m2.8152-0.28208 3.0033 0.28208m1.7828-0.095s2.6281 0 3.0982 0.28209m2.063 0s4.1297 0.84437 5.2571 1.8768m-34.913-5.8185s2.0639 1.6897 4.0348 1.7828c1.9708 0.18805 3.0033 0.56323 3.9417 0.18805 1.1265-0.4692 0.65725-0.28114 0.65725-0.28114m1.6888 0 2.0658-0.37612m2.0649-0.18711s2.251-0.84532 2.8152-0.46921m1.5947-0.37611s2.346-0.0931 3.2844 0.37611m1.6897-0.18805s2.8162 0 3.9417 0.4692m2.346 0.18806s3.6605 0.18711 4.1297 0.65632m-34.632-4.8791 1.5026 0.75035m2.1589 1.0315s3.7536 1.9718 6.0996 1.3145m1.3155-0.37518s2.8152 0.37518 3.0964-0.094m1.8768-0.65725s3.0973-0.18806 3.7546-0.56229m2.158-0.095s1.9708-0.56229 3.8476 0.095m1.1265 0.18711s0.84437-0.18711 3.0033 0.37518m1.5957-0.18806s1.0315-0.65632 2.5341 0.65726m-34.069-5.9125s1.7847 2.44 3.8486 2.44c2.5341 0 4.3178 0.4692 5.5373 0.18805m2.1598 0.094h1.9699m2.7221-0.4692 2.44-0.84532m-35.194-4.41c0.4692-0.18806 5.9116 0.18712 8.2576-1.9718m2.441 0.094s3.3784-0.75128 4.9741-3.0973m-31.721 2.441h1.8768m2.1589 0s6.7569 0.56229 7.039-0.28208m2.5331 0.18712 4.2228-0.84344m1.5026 0.4692s6.0996-1.1274 6.2886-1.9718m1.0315 0.18805s3.4725-0.84437 4.9741-2.8162m-32.942 2.347 1.9718-0.37517m1.5007-0.37612s7.1321 0.37612 8.4475-0.4692m1.6888 0.18806s2.252 0.28114 2.6281-0.18806m1.9699 0.4692s5.9134 0 8.2604-1.5957m0.9384-0.18618s4.0348-0.4692 5.6304-3.0042m-32.191 2.158s4.8801 0.37705 3.6596 0.37705m2.9102 0c3.1894-0.37705 4.0357-0.18805 5.1612-0.37705m1.5016 0.6582 1.5016-0.095m2.44-0.65538c3.8476 0.65538 13.233-2.7231 14.922-4.975m-33.411 2.9092c0 0.84437 5.1622 0 6.1006-0.094m1.6888-0.37518h2.6281m2.346 0.18806s2.441 0.28115 3.0973-0.4692m1.3145 0.0931c0.46921-0.0931 5.9125 0.18805 8.2585-1.9708m2.441 0.18806s3.3775-0.84438 4.9741-3.0973m-31.722 2.44h1.8768m2.2529-0.4692s6.4757 0.28208 6.7569-0.56323m2.7221 0.84531 4.2228-0.84531m1.5016 0.56323s6.1006-1.2196 6.2877-1.9708m1.0324 0.094s3.4725-0.75035 4.8801-2.8152m-32.003 1.8768 1.9708-0.37517m1.8768 0.18712s5.9125 0.37611 7.227-0.4692m1.6897 0.18805s2.252 0.28115 2.6272-0.18805m1.9708 0.4692s5.9125 0 8.2585-1.6888m0.9384-0.094s4.0357-0.56323 5.6323-3.0042m-32.661 2.441s3.0973-0.4692 3.5665-0.4692m1.6888 0c0.65726 0.37423 3.9426-0.46921 5.9125-0.65632m2.7221 0.18711 1.4076-0.18711m2.5341-0.6582c3.7536 0.6582 13.233-2.6272 14.829-4.9741m-33.318 3.0042c0 0.84344 5.0681 0 6.1006-0.18805m1.5957-0.28115h2.7212m2.2529 0.0931s2.5341 0.37611 3.1904-0.4692m1.3145 0.18805c0.4692-0.18805 5.9125 0.18806 8.2585-1.9708m2.441 0.18711s3.2844-0.84343 4.9741-3.1894m-31.722 2.4391h1.7837m2.158 0s4.975 0.37611 5.3493-0.4692m4.2238 0.37611 2.6272-0.56417m3.1913 0.18806s6.0996-1.1265 6.2877-1.9699m0.9384 0.18712s4.1297-1.3145 5.4433-3.9426m-26.09 2.8162s3.3784 0.28114 4.693-0.56323m1.5957 0.18711s2.346 0.37612 2.6272-0.18711m2.1589-0.28209s5.8185 0.84532 8.1645-0.84344m0.9384-0.18899s4.1297-1.7828 5.8194-4.3168m-18.207 1.2205h2.158m2.158 0.28115s5.7254-0.28115 7.133-1.9708m1.4076 0.4692s4.1297 0 5.4433-4.598m-14.827 3.0033s5.2552 0.84437 7.7884-1.6906m2.2539 0s4.0348-1.5007 4.5049-3.0973m-27.406 77.804 4.9741 0.2802m3.2854 0.37612 2.6272 0.28208m2.6281-0.28208 3.6605 0.28208m2.6281-0.6582s2.346-0.65632 3.6596-1.5947m2.2529-1.6897s3.3784-3.6596 3.3784-4.598m-22.148 4.3178 1.9708 0.28021m1.5947 0h2.7212m1.3145 0 2.9102-0.65726m1.3126 0.37705s3.0033-0.75128 3.3794-1.6897m2.252-0.65726s3.6605-2.629 4.0357-3.6605m-18.207 3.2844h3.0023m1.9718-0.28115 2.2529-0.65725m3.0023-0.37518 2.6281-1.3136m2.346-0.65725 3.2844-2.9092m41.951 13.515-2.0639-83.245-27.311 0.28115s-6.6628-0.65726-6.6628-1.9718m34.444 84.936-1.5957-81.651-27.217-0.28208s-3.5656-0.37423-4.9741-1.6888m32.473 84.278-1.5966-80.992-26.559-0.6582s-4.9732-0.65632-5.9116-2.6272m32.848 84.278-1.9718-79.585-26.934-1.4076s-4.3178-0.9384-4.9741-2.9092m-23.088 72.359h1.5957m2.0639 0 3.2854-0.37611m1.9708-0.28115 4.5989-1.0324m1.3136-0.65726s3.6605-1.0324 4.693-4.3168m-31.722-0.28208h1.3145m1.5957 0h6.0065m1.5957-0.37423 1.9708 0.65631m2.346-0.28208 3.9417-0.37423m2.346-0.28209s4.3168 0.28209 5.9125-1.9718m1.3145 0s3.0023-1.6888 3.0023-3.0023m-20.834 9.1969 3.6596 0.37611m2.6272-0.37611c1.0334 0 3.6605-0.65632 3.6605-0.65632m2.346 0.37517 2.9102-1.3136m1.3136-0.65726s4.693-2.346 4.693-3.6605m-31.44-0.65632h2.346m2.2529 0h8.2585m2.347 0h1.9708m2.6281-0.28208s5.3483-0.65632 5.6304-1.6897m1.6897-0.65631s3.2844-0.65726 3.9407-3.0033m-31.72 2.6272h1.9699m1.3145 0 5.6304-0.28114m1.9718 0h1.6888m3.0033-0.37518h2.9092m1.9718 0s4.9741-0.9384 5.6304-1.9708m1.6897-0.65726s2.9083-0.9384 3.2844-1.9699m-30.69 1.9699h4.881m2.7212 0.37611h5.2562m1.5947 0 1.6897-0.37611m3.2844-0.28115s6.9459-1.0324 7.3211-1.9708m1.9708-0.65632s3.0033-2.0658 2.6272-3.0042m-32.003 3.0042h2.9092m1.6897 0.28114h7.6022m1.3136-0.28114 2.346-0.37611m3.2844-0.37518s8.5406-0.65632 8.5406-1.9708m1.0324-0.28209s2.6281-1.0324 3.2844-3.2844m-32.378 4.2228s3.1904-0.4692 3.6596-0.4692m1.5957 0c-0.28115-0.4692 5.3502-0.18711 6.9449-0.65632m1.6897 0.18712 1.5016-0.18712m2.4391-0.65725c3.8486 0.65725 13.234-2.6272 14.923-4.9741m-33.411 3.0033c0 0.84437 5.1622 0 6.1006-0.18712m1.6888-0.28208h2.6272m2.3479 0.094s2.4391 0.37517 3.0964-0.46921m-25.809 39.605-1.3136-84.56 33.692-1.3136 4.692-1.5957m-35.381 87.187-1.0324-82.963 33.035-1.5966s3.0042-1.0315 3.3784-2.6272m-33.691 86.155-0.65726-80.523 32.378-2.0658s2.9102-1.3126 2.9102-2.251m-32.379 84.84-0.65726-79.21 31.44-1.3136s4.2228-1.0324 3.5665-2.346" stroke="#003660" stroke-miterlimit="10" stroke-width=".28115" fill="none"/><g fill="#fff"><g stroke-miterlimit="10"><path d="m359.75 380.77c0.56417-2.252 0.28208-4.5049 0.095-5.5364-0.28209-1.7837-1.3155-7.3211-9.1038-5.9134-7.6972 1.3145-24.12 4.1297-23.932 5.0681 0.18806 1.0324-10.887 2.44-10.887-0.28114 0-2.347 0.37517-7.133-0.18806-8.8218h0.094c0.75035 0.37517 1.4076 0.37517 2.5331 0 2.8162-0.84532 1.9708-1.9708 4.0357-3.4734 1.9718-1.5007 3.5665-1.5947 4.4118-1.5007 0.84438 0.18806 8.9158-0.6582 9.9473-1.4076 0.93841-0.84532 9.8542-3.0042 14.36-2.7221 4.4109 0.37518 8.0705 2.0639 9.1979 3.1913 1.2186 1.1265 5.4433 5.4433 6.0996 7.7893 0.75129 2.252 2.7212 7.2261-3.0964 11.825-1.2214 1.0324-2.441 1.5947-3.5674 1.9708v-0.18806z" stroke="#003660" stroke-width=".93840"/><path d="m359 381.43c-3.6605 1.2196-5.9125-0.28115-4.9741-0.28115 0.84437 0-1.9708 0.75035-4.786-3.4734-2.1598-3.0964-7.8843-2.252-8.9158-2.4391-1.0334-0.18712-5.2562 2.6281-5.5383 6.1006 0 0.64128-0.75035 2.787-0.75035 4.3168l-0.23507 2.6027c1.4076-1.9708 5.3032-6.0761 7.8363-5.8881 4.787 0.28115 11.92 3.5665 15.204 2.7221 1.4076-0.28303 7.9783-6.0065 8.4475-7.7903 0 0-4.0357 4.5058-8.8227 4.5989" stroke="#003660" stroke-width=".93840"/><path d="m326.34 354.68s-6.7578 2.6272-6.3817 4.881c0.37423 2.251 2.158 2.4391 2.251 2.4391 0.095-0.0931-1.1246 1.0324-1.2196 1.3145-0.0931 0.28115-0.75034 1.2196-1.5957 1.5957-0.84344 0.28115-2.8152 1.2196-4.3168 0-1.5016-1.3145-2.6272-2.7221-2.7212-3.0033l-0.094-0.18805c-2.346-3.4734 1.9708-5.6314 1.9708-5.6314 1.5016-1.1265 6.8518-2.2529 8.1645-2.4391 0.189 0 1.3145 0.84343 1.6897 0.84343" stroke="#0d3258" stroke-width=".84438"/><path d="m260.55 369.51c-1.0324 0 7.133 0.65726 14.547-7.4141 4.0357-4.4109 2.252-7.7903 7.8824-15.392 5.6323-7.6013 10.888-11.169 25.435-12.857 14.547-1.6897 18.019 7.4141 19.052 7.6022 0.93841 0.18711 2.9092 6.9449 2.44 8.9167-0.4692 1.969-2.535 4.597-5.1631 4.692-0.65632 0-1.4076-0.18805-1.4076-0.18805s-1.5007-0.75035-2.6272-0.84532l1.6888-0.56323c0.9384-1.4076-0.28115-2.346-2.7202-4.2228-3.4734-2.7221-7.9783-1.6897-13.234-1.0324-5.2552 0.65726-9.7602 3.4725-11.919 8.0714-2.0658 4.693-6.8509 13.045-14.453 19.051-7.6012 5.9125-9.0089 4.9741-15.861 4.786-6.9449-0.18617-7.6022-2.6272-8.9158-3.8476-1.4086-1.1265 0.094-5.4433-0.65726-6.5688-0.84437-1.1265-1.8768-1.6897-1.8768-1.6897" stroke="#003660" stroke-width=".93840"/></g><path d="m258.67 361.81-0.094-5.6304c-4.1288-0.37516-11.45 7.8834-7.1321 10.981 4.3168 3.1904 7.2261 2.346 8.6337 2.346 1.3136 0-4.786-0.18806-4.9741-1.9708-0.18713-1.7828-1.1255-3.2844 3.5665-5.7254"/><path d="m258.67 361.81-0.094-5.6304c-4.1288-0.37517-11.45 7.8834-7.132 10.981 4.3168 3.1904 7.2261 2.346 8.6337 2.346 1.3136 0-4.786-0.18805-4.9741-1.9708-0.18711-1.7828-1.1255-3.2844 3.5665-5.7254z" stroke="#0d3258" stroke-miterlimit="10" stroke-width=".84438"/><path d="m258.58 356.18 11.075-0.56323s1.4086-1.4076 1.4086-4.0357c0-0.18806 1.5947-0.094 2.251-0.9384 0.9384-0.93841 2.8162-4.4109 4.693-4.692 1.7828-0.18806 1.5957-1.9718 0.65726-2.2529-0.84532-0.37518-2.7221 0.18805-3.0973 0.84531-0.28114 0.65632-0.9384 2.252-2.6272 2.346-1.7837 0.0931-4.3178 1.6888-4.2247 2.346 0.095 0.56323 0.18806-1.2205-0.75035-2.1589-0.9384-1.0324 1.0324-2.0639 1.3145-2.6281 0.37517-0.65631 2.0639-2.346 1.5947-2.9083-0.4692-0.56323 0.094-1.8768-0.56229-1.4076-0.65726 0.4692-1.9708 0.84437-2.44 1.9699-0.4692 1.1265-1.3145 2.1589-2.441 2.5341-1.2196 0.4692-0.93841 1.5016-1.2196 3.1913-0.37518 1.5947-0.47015 3.0964-1.8778 3.4734-1.4076 0.2802-1.7828 0.0921-1.6888 1.4076 0.094 1.3126-2.0649 3.4715-2.0649 3.4715z" stroke="#0d3258" stroke-miterlimit="10" stroke-width=".84438"/></g><g stroke="#003660" stroke-miterlimit="10" stroke-width=".37517"><path d="m294.8 463.26 6.9449-7.3201-1.3136-9.1979 9.1969 12.576-14.828 3.9417z" fill="#febc11"/><path d="m318.27 445.71-8.6356 13.608-0.65632-8.2585 9.2919-5.3493z" fill="#febc11"/><path d="m309.35 472.56 0.28115-13.515 4.9741 4.8801-5.2552 8.6346z" fill="none"/></g><g><path d="m125.02 1.1035c-1.52 0.1175-2.7 1.408-2.7 2.9336 0.12 1.6431 1.41 2.8148 3.05 2.6973 1.53-0.1164 2.7-1.4072 2.58-2.9317 0-1.5256-1.4-2.8167-2.93-2.6992zm-6.45 0.2344c-1.53 0.1187-2.7 1.408-2.7 2.9336 0.12 1.642 1.41 2.8148 3.05 2.6973 1.52-0.1164 2.7-1.4061 2.58-2.9317 0-1.5256-1.41-2.8156-2.93-2.6992zm13.02 0c-1.64-0.1164-2.93 1.1736-3.05 2.6992 0 1.5256 1.17 2.9317 2.7 2.9317 1.64 0.1174 2.93-1.0553 3.05-2.6973 0-1.5256-1.17-2.8149-2.7-2.9336zm-19.47 0.4707c-1.53 0.2351-2.7 1.6423-2.47 3.168 0.12 1.5244 1.53 2.6967 3.05 2.4629 1.53-0.1175 2.7-1.5264 2.47-3.0508-0.12-1.6432-1.53-2.6976-3.05-2.5801zm25.36 0.0918c-1.3 0.0887-2.4 1.1534-2.6 2.4883-0.12 1.5244 1.05 2.9332 2.58 3.0508 1.52 0.2338 2.93-0.9385 3.05-2.4629 0.23-1.5257-0.94-2.9341-2.47-3.0528-0.19-0.0292-0.38-0.0361-0.56-0.0234zm-31.25 0.6992c-0.18-0.0093-0.38-0.0001-0.57 0.0293-1.52 0.3515-2.58 1.7607-2.34 3.2852 0.23 1.5256 1.64 2.5807 3.28 2.3457 1.53-0.2339 2.58-1.6401 2.35-3.2832-0.21-1.335-1.4-2.3116-2.72-2.377zm37.7 0.1172c-1.32 0.0656-2.51 1.0421-2.72 2.377-0.23 1.5256 0.82 2.9321 2.35 3.166 1.52 0.3526 3.05-0.7038 3.28-2.3457 0.24-1.5245-0.82-2.9329-2.35-3.168-0.19-0.0294-0.38-0.0387-0.56-0.0293zm-44.032 1.0508c-0.188-0.0062-0.377 0.0058-0.568 0.0351-1.526 0.3515-2.583 1.8768-2.23 3.4024 0.352 1.5244 1.878 2.4616 3.4 2.2265 1.53-0.3514 2.46-1.8759 2.11-3.4004-0.2-1.3348-1.4-2.2207-2.712-2.2636zm50.362 0.0781c-1.32-0.0334-2.51 0.865-2.72 2.3027-0.35 1.5245 0.59 2.9337 2.12 3.2852 1.52 0.3526 3.05-0.5869 3.4-2.1113 0.35-1.5257-0.71-3.0498-2.23-3.4024-0.19-0.0439-0.38-0.0694-0.57-0.0742zm-56.696 1.4043c-0.188 0.0082-0.379 0.0322-0.57 0.0762-1.525 0.4689-2.464 1.9951-1.994 3.5195 0.351 1.5253 1.877 2.3453 3.402 1.9943 1.526-0.469 2.464-1.9933 1.993-3.5177-0.307-1.335-1.512-2.1298-2.831-2.0723zm63.036 0.084c-1.32-0.1138-2.54 0.7705-2.96 2.1055-0.35 1.5255 0.59 3.0505 2 3.5195 1.53 0.353 3.17-0.588 3.52-2.1133 0.35-1.4069-0.47-3.049-2-3.4004-0.19-0.0586-0.38-0.0951-0.56-0.1113zm-68.745 1.75c-0.359-0.0328-0.726 0.0035-1.078 0.1211-1.525 0.4678-2.346 2.1114-1.879 3.5199 0.471 1.524 2.113 2.345 3.639 1.875 1.407-0.469 2.229-2.111 1.76-3.6352-0.352-1.0569-1.364-1.7824-2.442-1.8808zm74.405 0.1172c-1.1 0.0989-2.04 0.8248-2.4 1.8808-0.47 1.524 0.24 3.05 1.76 3.637 1.53 0.469 3.05-0.354 3.52-1.879 0.59-1.5246-0.23-3.0476-1.76-3.5177-0.38-0.1173-0.76-0.1541-1.12-0.1211zm-80.504 1.9746c-0.361-0.022-0.728 0.0231-1.08 0.1406-1.525 0.5865-2.229 2.2286-1.643 3.6366 0.587 1.525 2.113 2.229 3.639 1.643 1.407-0.469 2.227-2.111 1.64-3.637-0.439-1.0552-1.473-1.7173-2.556-1.7832zm86.644 0.0683c-1.08 0.0497-2.11 0.7759-2.55 1.8319-0.59 1.525 0.11 3.05 1.64 3.637 1.41 0.586 3.05-0.118 3.63-1.643 0.59-1.408-0.11-3.05-1.64-3.6364-0.35-0.1466-0.72-0.206-1.08-0.1895zm-92.627 2.3279c-0.361-0.005-0.728 0.061-1.08 0.207-1.524 0.706-2.11 2.346-1.523 3.754 0.703 1.407 2.346 2.112 3.754 1.526 1.407-0.704 2.11-2.346 1.406-3.754-0.44-1.055-1.473-1.716-2.557-1.733zm98.607 0.117c-1.08 0.017-2.14 0.677-2.67 1.733-0.58 1.408 0 3.05 1.53 3.754 1.4 0.586 3.05-0.117 3.64-1.526 0.7-1.407-0.01-3.051-1.41-3.754-0.36-0.146-0.72-0.212-1.09-0.207zm-104.52 2.612c-0.357 0.022-0.708 0.119-1.031 0.295-1.407 0.704-1.995 2.463-1.291 3.871 0.703 1.289 2.462 1.875 3.754 1.174 1.407-0.706 1.994-2.348 1.291-3.756-0.528-1.056-1.65-1.65-2.723-1.584zm110.39 0.119c-1.09-0.066-2.15 0.526-2.67 1.582-0.71 1.407-0.24 3.051 1.17 3.754 1.41 0.705 3.17 0.235 3.87-1.174 0.71-1.407 0.12-3.165-1.29-3.869-0.35-0.176-0.72-0.271-1.08-0.293zm-115.6 2.937c-0.541-0.03-1.09 0.097-1.574 0.405-1.408 0.704-1.877 2.465-1.057 3.754 0.823 1.409 2.463 1.877 3.872 1.056 1.29-0.705 1.759-2.464 1.056-3.871-0.513-0.807-1.394-1.293-2.297-1.344zm120.77 0.125c-0.92 0.061-1.77 0.574-2.21 1.454-0.82 1.291-0.35 3.05 1.05 3.871 1.29 0.704 3.05 0.234 3.87-1.055 0.71-1.409 0.24-3.168-1.05-3.871-0.53-0.308-1.11-0.435-1.66-0.399zm-51.16 1.668c-0.5 0.039-1.82 0.066-3.32 0.079l-4.46 0.037c-1.03 0.008-2.09-0.001-2.92-0.028-0.18 0.07-0.21 0.382-0.04 0.5l0.31 0.032c1.11 0.111 1.32 0.162 1.34 1.988l0.05 6.404c0.02 1.824-0.19 1.879-1.3 1.992l-0.51 0.057c-0.17 0.121-0.14 0.43 0.05 0.498 1.08-0.044 2.14-0.069 3.18-0.078 0.45-0.004 1.06 0.007 1.55 0.01v-0.209l0.13 0.209c0.61 0.003 1.12-0.001 1.92 0.011 0.19-0.071 0.21-0.381 0.04-0.5l-0.99-0.076c-1.1-0.06-1.32-0.112-1.33-1.937l-0.03-2.41c0-0.429 0.02-0.466 0.56-0.471l1.39-0.01c2.05-0.016 2.43 0.013 2.65 0.734l0.2 0.67c0.14 0.12 0.59 0.118 0.7-0.021-0.03-0.535-0.08-1.154-0.08-1.791-0.01-0.637 0.03-1.275 0.05-1.723-0.12-0.137-0.57-0.132-0.71-0.01l-0.18 0.586c-0.21 0.726-0.58 0.762-2.63 0.78l-1.39 0.011c-0.54 0.005-0.57-0.03-0.57-0.461l-0.03-3.082c-0.01-0.964-0.01-0.995 0.98-1.005l1.2-0.01c0.76-0.006 1.34 0.007 1.98 0.121 0.9 0.166 1.28 0.66 1.52 1.658 0.24 0.1 0.67 0.063 0.76-0.076-0.06-0.809-0.07-2.1-0.07-2.479zm-5.94 11.491c-0.04-0.001-0.09 0-0.13 0l0.34 16.324-5.74-6.092-12.79 1.174 18.53 4.924v0.011l-11.49 15.711 10.68-5.396 0.81-10.252 0.01 0.279 0.14-0.135 10.65 16.793-1.64-13.255-8.9-3.651 5.97-5.851-6.44-10.584zm-15.72-10.746c-0.6-0.011-1.24 0.022-1.91 0.105-4.91 0.606-8.06 3.611-7.63 7.094 0.38 3.04 3.76 5.383 9.04 4.73 4.72-0.582 7.92-3.525 7.5-6.888-0.33-2.721-2.77-4.968-7-5.041zm-53.459 0.712c-0.542-0.009-1.091 0.132-1.575 0.44-1.408 0.939-1.76 2.7-0.822 3.99 0.822 1.29 2.581 1.642 3.871 0.82 1.291-0.82 1.644-2.582 0.823-3.99-0.513-0.806-1.395-1.244-2.297-1.26zm51.999 0.067c3.28-0.062 5.02 2.543 5.32 4.961 0.43 3.432-1.55 5.148-4.21 5.476-4 0.493-5.77-2.545-6.06-4.902-0.45-3.638 1.94-5.198 4.27-5.486 0.24-0.029 0.46-0.045 0.68-0.049zm79.88 0.115c-0.91 0.022-1.79 0.509-2.3 1.315-0.94 1.29-0.59 3.049 0.82 3.871 1.29 0.821 3.05 0.468 3.87-0.823 0.83-1.29 0.48-3.049-0.82-3.871-0.48-0.352-1.03-0.505-1.57-0.492zm-137.27 3.445c-0.548 0.028-1.098 0.215-1.582 0.567-1.292 0.823-1.526 2.698-0.588 3.871 0.822 1.29 2.698 1.644 3.871 0.705 1.291-0.938 1.643-2.698 0.705-3.988-0.586-0.807-1.493-1.201-2.406-1.155zm89.188 0.034c-0.29 0.005-0.59 0.064-0.89 0.181-1.05 0.469-1.52 1.761-1.05 2.817 0.47 1.173 1.76 1.642 2.93 1.172 1.06-0.469 1.53-1.759 1.06-2.932-0.36-0.792-1.17-1.255-2.05-1.238zm53.47 0.115c-0.92-0.023-1.82 0.39-2.41 1.123-0.94 1.29-0.7 3.049 0.59 3.988 1.29 0.937 3.05 0.704 3.99-0.586 0.93-1.292 0.58-3.05-0.59-3.988-0.48-0.352-1.03-0.523-1.58-0.537zm-37.41 0.621c-0.54-0.013-1.06 0.011-1.56 0.078-1.98 0.283-3.69 1.299-4.41 3.176-0.82 2.101-0.05 4.082 1.4 5.623 1.29 1.368 3.04 2.415 5.21 3.26 1.43 0.554 3.05 0.871 3.58 0.945 0.26 0.047 0.54 0.084 0.82 0.154 0.43-0.185 1.43-1.012 2-2.029-0.05-0.187-0.38-0.387-0.63-0.318-1.02 0.802-2.75 1.679-5.52 0.605-2.84-1.101-5.11-3.905-3.78-7.32 1.28-3.29 4.65-3.641 7.44-2.557 2.9 1.126 3.37 2.842 3.35 3.998 0.11 0.172 0.51 0.309 0.72 0.242 0.24-1.273 0.56-2.238 0.66-2.625-0.19-0.109-0.34-0.183-0.58-0.334-0.96-0.592-2.41-1.342-3.66-1.828-1.67-0.647-3.43-1.031-5.04-1.07zm-74.055 1.549c-0.651 0.381-1.309 0.743-1.957 1.082-0.626 0.329-1.282 0.653-2.217 1.103-0.168 0.184-0.032 0.442 0.17 0.471l0.682-0.219c0.309-0.123 0.522-0.178 0.602-0.025 0.088 0.167 0.055 0.611-0.03 1.314-0.212 1.567-0.425 3.037-0.672 4.641-1.419-0.674-2.818-1.513-4.341-2.387-0.556-0.348-0.729-0.471-0.793-0.592-0.064-0.122 0.017-0.222 0.334-0.427l0.588-0.403c0.111-0.196-0.076-0.447-0.276-0.422-0.464 0.284-1.728 0.966-2.646 1.448-0.857 0.446-1.741 0.888-2.655 1.328-0.143 0.133-0.032 0.442 0.149 0.484l0.592-0.193c1.01-0.355 1.273-0.26 2.076 0.154l4.402 2.297c1.009 0.5 1.211 0.685 1.66 1.537l0.473 0.897c0.849 1.613 0.684 1.758-0.258 2.347l-0.637 0.41c-0.09 0.184 0.076 0.444 0.276 0.418 1.109-0.619 2.041-1.125 3-1.628 0.92-0.481 1.867-0.956 3.178-1.604 0.135-0.148 0.011-0.432-0.192-0.463l-0.826 0.356c-1.063 0.459-1.274 0.511-2.121-1.102l-0.481-0.912c-0.543-1.036-0.567-1.431-0.355-2.551 0.199-1.189 0.385-2.354 0.639-3.592 0.382-1.907 0.479-2.329 1.353-2.941l0.559-0.408c0.082-0.199-0.046-0.442-0.276-0.418zm8.467 0.533c-0.293 0.004-0.593 0.062-0.887 0.18-1.055 0.586-1.643 1.876-1.056 2.931 0.469 1.173 1.76 1.644 2.816 1.174 1.173-0.586 1.643-1.877 1.174-2.933-0.353-0.88-1.167-1.363-2.047-1.352zm-44.875 1.014c-0.551 0.034-1.089 0.22-1.529 0.572-1.173 1.057-1.409 2.817-0.471 3.99 1.057 1.289 2.817 1.408 3.99 0.469 1.291-1.056 1.408-2.815 0.469-3.988-0.586-0.734-1.54-1.1-2.459-1.043zm153 0.146c-0.9-0.086-1.83 0.279-2.5 1.012-0.93 1.29-0.7 3.052 0.48 3.99 1.17 1.055 3.05 0.821 3.98-0.352 0.94-1.291 0.82-3.051-0.47-3.988-0.44-0.396-0.96-0.61-1.49-0.662zm-157.42 3.932c-0.718-0.044-1.452 0.191-2.039 0.718-1.174 1.055-1.29 2.815-0.234 3.989 1.056 1.173 2.815 1.29 3.988 0.234s1.291-2.815 0.234-3.988c-0.527-0.587-1.23-0.909-1.949-0.953zm161.85 0.234c-0.74 0.044-1.47 0.366-2 0.953-1.05 1.172-0.94 2.933 0.24 3.989 1.17 1.057 2.93 0.938 3.99-0.235 1.05-1.173 0.93-2.932-0.24-3.988-0.53-0.528-1.26-0.763-1.99-0.719zm-28 1.574c-0.08 0.287-0.48 0.537-1.02 0.856l-5.89 3.648c-0.89 0.55-1.58 0.985-2.05 1.227-0.6 0.31-0.9 0.312-1.52 0.025l-0.66-0.283c-0.22 0.049-0.33 0.283-0.23 0.441 0.73 0.387 1.37 0.743 2.04 1.137 0.82 0.504 1.5 0.9 2.13 1.311 0.2 0.035 0.37-0.222 0.29-0.409l-0.54-0.418c-0.71-0.516-0.77-0.609 0.15-1.246l1.88-1.289c0.42-0.294 0.4-0.307 0.93 0.004l2.7 1.586c0.57 0.334 0.63 0.37 0.6 0.891l-0.23 2.578c-0.11 0.793-0.22 0.845-0.99 0.475l-0.47-0.215c-0.18 0.017-0.31 0.294-0.19 0.465 0.72 0.401 1.63 0.898 2.5 1.412 1.06 0.62 1.8 1.075 2.62 1.593 0.19 0.01 0.33-0.242 0.23-0.441l-0.28-0.225c-0.96-0.741-1-0.905-0.88-2.173l0.72-7.936c0.07-0.858 0.21-1.709 0.28-2.568-0.04-0.124-0.12-0.228-0.28-0.323-0.04-0.022-1.07 0.19-1.84-0.123zm-108.82 0.299c-0.068-0.015-0.185 0.023-0.3 0.106-0.077 0.054-0.134 0.138-0.19 0.22-0.001 0.487-0.261 0.733-1.201 1.401l-7.828 5.556c-1.305 0.927-1.584 1.104-1.928 0.821-0.069-0.016-0.155 0.026-0.232 0.08-0.096 0.068-0.163 0.139-0.172 0.207 0.214 0.586 0.544 1.661 0.756 2.65 0.176 0.087 0.607-0.159 0.681-0.338-0.095-1.641 0.313-2.163 2.078-3.416l1.075-0.763c0.499-0.354 0.538-0.34 0.957 0.25l4.3 6.062c1.056 1.488 0.912 1.653 0.049 2.35l-0.756 0.64c-0.085 0.166 0.135 0.434 0.329 0.381 1.208-0.9 2.099-1.553 2.943-2.152 0.844-0.6 1.718-1.199 2.851-1.961 0.114-0.166-0.047-0.431-0.252-0.434l-0.728 0.434c-0.952 0.569-1.156 0.649-2.211-0.838l-4.299-6.062c-0.417-0.591-0.418-0.631 0.08-0.985l1.094-0.777c2.053-1.459 2.607-1.449 3.633-0.531 0.242-0.025 0.549-0.286 0.564-0.467-0.376-0.408-1.078-1.722-1.293-2.434zm108.14 1.559l0.04 0.023c0.04 0.164 0 0.516-0.12 1.506l-0.19 2.281c-0.04 0.452-0.14 0.435-0.71 0.1l-2.12-1.242c-0.48-0.286-0.55-0.323-0.07-0.621l1.87-1.237c0.78-0.482 1.16-0.754 1.3-0.81zm-137.95 0.718c-0.719 0-1.424 0.264-1.951 0.792-1.173 1.173-1.173 2.932 0 3.99 1.055 1.173 2.817 1.173 3.99 0 1.055-1.058 1.055-2.817 0-3.99-0.587-0.528-1.32-0.792-2.039-0.792zm171.38 0.235c-0.73 0-1.47 0.263-2.05 0.791-1.06 1.057-1.06 2.933 0 3.99 1.17 1.173 2.93 1.173 3.99 0 1.17-1.057 1.17-2.933 0.11-3.99-0.59-0.528-1.32-0.791-2.05-0.791zm-19.91 4.318c-0.15 0.041-0.27 0.216-0.23 0.348l0.43 0.504c0.72 0.852 0.84 1.037-0.4 2.332l-4.42 4.635c-1.23 1.295-1.42 1.184-2.29 0.492l-0.57-0.426c-0.21-0.085-0.4 0.214-0.31 0.393 0.74 0.66 1.6 1.464 2.47 2.295l1.76 1.695c1.91 1.824 3.36 3.24 4.05 3.947 0.53-0.139 1.8-0.727 2.44-1.121 0.01-0.18-0.23-0.479-0.46-0.58-2 0.534-2.34 0.336-4.22-1.473-1.36-1.303-1.54-1.666-1.58-2.035-0.05-0.456 0.34-0.936 0.94-1.56l4.16-4.37c1.24-1.296 1.43-1.186 2.31-0.509l0.42 0.31c0.2 0.067 0.42-0.199 0.31-0.394-0.77-0.701-1.55-1.422-2.3-2.139-0.78-0.75-1.53-1.495-2.36-2.334-0.05-0.022-0.1-0.023-0.15-0.01zm-155.93 0.035c-0.719 0.015-1.422 0.31-1.949 0.897-1.057 1.173-1.058 2.932 0.115 3.988s3.051 0.938 3.99-0.117c1.056-1.173 1.054-3.052-0.119-3.988-0.587-0.529-1.319-0.794-2.037-0.78zm180.36 0.178c-0.74-0.044-1.47 0.191-2 0.719-1.17 1.057-1.29 2.932-0.23 3.988 1.05 1.173 2.81 1.29 3.98 0.235 1.18-1.057 1.18-2.818 0.24-3.991-0.53-0.586-1.26-0.907-1.99-0.951zm-184.13 4.631c-0.913-0.086-1.82 0.281-2.406 1.014-1.055 1.29-0.821 3.05 0.352 3.988 1.173 1.057 3.05 0.821 3.988-0.352 0.939-1.29 0.821-3.05-0.352-3.988-0.484-0.396-1.034-0.61-1.582-0.662zm187.85 0.236c-0.53 0.052-1.06 0.265-1.5 0.66-1.29 0.94-1.4 2.7-0.47 3.991 0.94 1.173 2.82 1.408 3.99 0.351 1.18-0.938 1.41-2.699 0.35-3.988-0.58-0.733-1.49-1.099-2.37-1.014zm-164.66 0.055c-0.047-0.011-0.097-0.01-0.143 0.01-0.725 0.737-1.48 1.483-2.228 2.199-0.783 0.75-1.561 1.47-2.334 2.162-0.089 0.186 0.108 0.426 0.31 0.399l0.41-0.321c0.872-0.691 1.061-0.8 2.319 0.518l4.414 4.627c1.257 1.32 1.141 1.503 0.412 2.344l-0.338 0.394c-0.036 0.201 0.194 0.411 0.377 0.33 0.725-0.742 1.513-1.521 2.262-2.238 0.749-0.716 1.528-1.435 2.3-2.127 0.09-0.18-0.108-0.421-0.31-0.395l-0.41 0.321c-0.871 0.691-1.06 0.801-2.319-0.518l-4.414-4.629c-1.259-1.319-1.14-1.501-0.41-2.342l0.338-0.396c0.026-0.15-0.096-0.304-0.236-0.338zm-27.18 4.73c-0.913-0.046-1.82 0.349-2.406 1.155-0.939 1.291-0.705 3.05 0.586 3.988 1.289 0.939 3.051 0.587 3.99-0.586 0.937-1.29 0.586-3.049-0.588-3.988-0.484-0.352-1.034-0.54-1.582-0.569zm195.8 0.237c-0.55 0.028-1.1 0.214-1.59 0.566-1.17 0.938-1.52 2.697-0.58 3.988 0.94 1.173 2.7 1.526 3.99 0.588 1.29-0.939 1.52-2.699 0.58-3.99-0.58-0.806-1.49-1.199-2.4-1.152zm-19 2.478c-0.14 0.015-0.29 0.15-0.28 0.303l0.28 0.438c0.6 0.935 0.69 1.133-0.74 2.259l-5.01 3.953c-1.43 1.128-1.6 0.992-2.37 0.186l-0.36-0.375c-0.19-0.055-0.42 0.155-0.36 0.346 0.67 0.793 1.37 1.652 2.01 2.466 0.64 0.815 1.28 1.659 1.89 2.495 0.17 0.105 0.43-0.067 0.42-0.272l-0.28-0.439c-0.6-0.934-0.69-1.133 0.74-2.26l5.01-3.951c1.43-1.126 1.6-0.994 2.37-0.188l0.36 0.375c0.2 0.055 0.42-0.152 0.36-0.343-0.67-0.795-1.34-1.618-1.98-2.432-0.67-0.852-1.31-1.695-1.92-2.531-0.04-0.026-0.09-0.034-0.14-0.03zm-158.62 1.514c-0.832 0.749-1.566 1.301-2.356 2.24-2.215 2.634-2.235 4.902-0.931 6 1.183 1 2.987 0.485 4.678-0.402l0.97-0.51c1.69-0.887 2.705-0.863 3.455-0.23 0.803 0.677 0.756 1.962-0.398 3.334-1.487 1.769-3.715 1.555-4.658 1.314-0.214 0.067-0.46 0.384-0.42 0.602 0.801 0.707 1.906 1.238 2.455 1.146 0.462-0.227 1.646-0.832 3.043-2.492 2.201-2.618 2.457-5.084 0.957-6.35-1.33-1.122-3.238-0.51-4.672 0.285l-1.375 0.752c-1.462 0.804-2.495 0.826-3.049 0.36-0.696-0.588-0.88-1.76 0.334-3.203 1.291-1.533 2.703-1.422 3.615-1.116 0.23-0.084 0.49-0.419 0.448-0.609-0.619-0.523-1.639-1.074-2.096-1.121zm-21.926 1.008c-0.913 0.022-1.82 0.508-2.406 1.314-0.822 1.291-0.47 3.05 0.937 3.871 1.291 0.821 3.05 0.471 3.871-0.82 0.821-1.29 0.471-3.049-0.82-3.871-0.484-0.352-1.034-0.507-1.582-0.494zm203.29 0.234c-0.54-0.013-1.09 0.142-1.57 0.494-1.29 0.822-1.64 2.581-0.82 3.871 0.82 1.291 2.58 1.642 3.87 0.821s1.76-2.58 0.82-3.869c-0.51-0.807-1.39-1.295-2.3-1.317zm-206.8 5.141c-0.902 0.06-1.781 0.573-2.295 1.453-0.702 1.29-0.235 3.051 1.057 3.871 1.407 0.705 3.166 0.352 3.869-1.055 0.822-1.408 0.354-3.05-1.054-3.871-0.484-0.308-1.035-0.435-1.577-0.398zm210.29 0.316c-0.55-0.047-1.13 0.053-1.66 0.317-1.29 0.821-1.76 2.581-1.05 3.871 0.82 1.407 2.58 1.877 3.87 1.056 1.4-0.822 1.87-2.463 1.05-3.871-0.44-0.806-1.29-1.294-2.21-1.373zm-18.18 1.914c-0.14-0.001-0.3 0.116-0.31 0.27l0.14 0.277c0.48 1.002 0.55 1.211-0.99 2.178l-5.42 3.398c-1.54 0.969-1.69 0.815-2.37-0.068l-0.32-0.412c-0.19-0.075-0.44 0.11-0.4 0.306 0.61 0.9 1.19 1.788 1.74 2.665 0.55 0.878 1.1 1.782 1.87 3.078 0.16 0.124 0.43-0.02 0.45-0.223l-0.46-0.883c-0.53-0.973-0.6-1.181 0.95-2.148l2.03-1.28c0.37-0.229 0.41-0.227 0.7 0.231l0.74 1.178c1.09 1.736 1.26 2.074 0.76 2.638l-0.47 0.514c-0.03 0.185 0.21 0.563 0.39 0.59 0.44-0.305 0.94-0.675 1.48-1.012 0.54-0.338 1.1-0.635 1.49-0.853 0.05-0.17-0.18-0.551-0.36-0.606l-0.6 0.151c-0.72 0.203-0.95-0.096-2.04-1.832l-0.74-1.178c-0.29-0.459-0.27-0.498 0.09-0.727l2.61-1.633c0.81-0.511 0.85-0.53 1.37 0.307l0.64 1.018c0.4 0.639 0.7 1.147 0.93 1.75 0.33 0.848 0.11 1.434-0.61 2.162 0.04 0.255 0.29 0.594 0.46 0.601 0.66-0.467 1.75-1.153 2.07-1.353-0.29-0.402-1-1.508-1.81-2.785l-2.36-3.772c-0.55-0.879-1.1-1.786-1.51-2.502-0.04-0.03-0.09-0.044-0.14-0.045zm-194.74 3.385c-1.072-0.071-2.194 0.501-2.722 1.469-0.704 1.408-0.117 3.168 1.291 3.871 1.29 0.704 3.05 0.118 3.754-1.289 0.704-1.408 0.117-3.051-1.291-3.756-0.323-0.176-0.674-0.271-1.032-0.295zm215.53 0.238c-0.38 0.022-0.75 0.117-1.1 0.293-1.41 0.703-1.88 2.462-1.18 3.871 0.71 1.29 2.35 1.877 3.76 1.174 1.41-0.705 1.99-2.346 1.29-3.756-0.53-1.055-1.65-1.648-2.77-1.582zm-196.4 2.494c-0.682 0.029-1.357 0.362-1.98 0.873-0.871 0.7-1.811 2.01-2.717 3.61-0.952 1.682-1.895 3.449-2.537 4.793-0.019 0.207 0.221 0.343 0.408 0.26l0.346-0.51c0.62-0.921 0.813-0.838 2.248-0.024h0.002l5.476 3.106c1.587 0.899 1.526 1.109 1.069 2.123l-0.209 0.476c0 0.244 0.305 0.336 0.457 0.206 0.505-0.961 1.012-1.893 1.523-2.795 0.51-0.902 1.049-1.817 1.59-2.703 0.034-0.198-0.224-0.371-0.41-0.288l-0.301 0.426c-0.636 0.913-0.785 1.073-2.371 0.174l-1.916-1.086c-0.315-0.179-0.317-0.206 0.031-0.822 0.383-0.677 0.571-0.869 1.229-0.985 0.862-0.162 2.011-0.267 2.953-0.464 2.1-0.464 3.289-1.2 4.404-3.17 0.407-0.717 0.582-1.133 0.676-1.405-0.041-0.103-0.204-0.196-0.322-0.127-0.154 0.238-0.582 0.781-1.266 1.151-1.129 0.633-2.981 0.937-5.932 1.433-0.135 0.031-0.278 0.005-0.254-0.144 0.271-1.174 0.407-3.019-0.97-3.801-0.404-0.229-0.817-0.323-1.227-0.307zm-1.094 2.713c0.335 0.023 0.658 0.12 0.954 0.287 1.422 0.807 1.617 2.138 0.478 4.149-0.557 0.984-0.588 0.966-1.066 0.693l-3.114-1.763c-0.688-0.392-0.722-0.437-0.117-1.504 0.758-1.338 1.862-1.931 2.865-1.862zm-20.902 0.256c-1.088-0.016-2.144 0.578-2.672 1.635-0.586 1.408 0 3.167 1.407 3.754 1.408 0.703 3.169 0 3.755-1.408 0.703-1.408-0.001-3.051-1.41-3.756-0.352-0.147-0.717-0.219-1.08-0.225zm221.3 0.254c-0.36-0.005-0.73 0.061-1.08 0.207-1.52 0.703-2.11 2.346-1.52 3.754 0.7 1.407 2.34 2.112 3.75 1.525 1.41-0.704 2.11-2.346 1.41-3.755-0.44-1.056-1.48-1.715-2.56-1.731zm-144.26 4.506c-0.019 0-0.334 0.473-0.668 0.553 0.028 0.197-0.056 0.475-0.179 0.845l-1.309 4.118c-0.2 0.625-0.352 1.109-0.467 1.41-0.143 0.382-0.247 0.487-0.523 0.533l-0.289 0.057c-0.067 0.104-0.058 0.278 0.009 0.336 0.334-0.024 0.63-0.036 0.946-0.036 0.39 0.012 0.707 0.012 1.012 0.036 0.076-0.046 0.084-0.254 0.017-0.336l-0.275-0.057c-0.354-0.058-0.392-0.093-0.201-0.775l0.392-1.387c0.085-0.313 0.074-0.313 0.322-0.313h1.27c0.268 0 0.297 0 0.391 0.313l0.449 1.572c0.125 0.497 0.096 0.566-0.248 0.611l-0.211 0.036c-0.057 0.07-0.047 0.278 0.029 0.336 0.334-0.011 0.755-0.036 1.166-0.036 0.496 0 0.849 0.012 1.24 0.036 0.067-0.058 0.065-0.254-0.011-0.336l-0.141-0.036c-0.487-0.104-0.535-0.184-0.756-0.959l-1.373-4.843c-0.153-0.522-0.277-1.065-0.43-1.584-0.037-0.059-0.084-0.094-0.162-0.094zm124.96 0.643c-0.63-0.019-1.26 0.081-1.88 0.306-2.87 1.045-4.4 4.854-2.58 9.854 1.63 4.467 5.21 6.923 8.39 5.765 2.95-1.068 4.67-4.676 2.81-9.785-1.37-3.775-4.03-6.06-6.74-6.14zm-204.58 0.482c-1.083 0.016-2.1167 0.675-2.5566 1.73-0.5865 1.526 0.117 3.17 1.6426 3.756 1.408 0.469 3.05-0.233 3.637-1.642 0.586-1.525-0.236-3.167-1.643-3.637-0.352-0.147-0.719-0.213-1.08-0.207zm226.41 0.236c-0.37-0.007-0.76 0.059-1.15 0.205-1.4 0.587-2.11 2.23-1.52 3.639 0.47 1.525 2.11 2.227 3.64 1.641 1.4-0.587 2.11-2.228 1.64-3.637-0.44-1.144-1.47-1.826-2.61-1.848zm-147.32 0.5h0.021c0.047 0.08 0.105 0.302 0.266 0.914l0.4 1.387c0.077 0.276 0.037 0.303-0.228 0.303h-0.992c-0.23 0-0.259-0.002-0.155-0.338l0.403-1.352c0.171-0.543 0.247-0.834 0.285-0.914zm126.97 1.543c2.38-0.116 3.86 1.529 4.51 3.326 1.28 3.518-1 6.05-3.44 6.936-3.25 1.18-5.36-0.355-6.28-2.877-1.37-3.782 1.19-6.193 3.42-7.004 0.64-0.234 1.24-0.354 1.79-0.381zm-208.35 3.674c-1.1275 0.105-2.1396 0.853-2.4922 1.996-0.469 1.408 0.3525 3.051 1.877 3.52 1.4081 0.469 3.0491-0.352 3.5191-1.877 0.469-1.407-0.352-3.051-1.759-3.52-0.382-0.117-0.7691-0.154-1.1449-0.119zm230.98 0.285c-0.36-0.018-0.73 0.041-1.08 0.188-1.52 0.468-2.35 1.994-1.88 3.519s2.12 2.345 3.52 1.758c1.53-0.469 2.35-1.993 1.88-3.517-0.35-1.145-1.36-1.893-2.44-1.948zm-214.19 0.401c-0.064 0.301-0.478 1.604-0.951 3.033l-1.416 4.265c-0.327 0.984-0.692 2.028-1.006 2.868 0.007 0.199 0.293 0.318 0.459 0.201l0.15-0.346c0.463-1.013 0.579-1.198 2.309-0.627l6.074 2.004c1.73 0.57 1.713 0.789 1.447 1.865l-0.211 0.848c0.063 0.194 0.365 0.269 0.489 0.111 0.301-1.015 0.737-2.383 1.064-3.367l0.844-2.545c0.866-2.615 1.521-4.532 1.881-5.504-0.338-0.458-1.416-1.358-2.057-1.718-0.208 0.081-0.384 0.444-0.336 0.683 1.063 1.218 1.374 1.865 0.401 4.692-0.623 1.877-0.88 2.213-1.198 2.406-0.389 0.243-0.991 0.094-1.824-0.18l-2.072-0.685c-0.408-0.136-0.434-0.17-0.264-0.682l0.356-1.07c0.645-1.946 0.804-2.315 1.541-2.245l0.705 0.059c0.157-0.147 0.297-0.57 0.22-0.721-0.53-0.154-1.115-0.299-1.736-0.504-0.604-0.199-1.178-0.436-1.611-0.603-0.167 0.073-0.307 0.497-0.252 0.713l0.504 0.34c0.65 0.388 0.54 0.772-0.106 2.716l-0.355 1.073c-0.169 0.512-0.195 0.53-0.619 0.39l-2.758-0.91c-0.931-0.307-0.965-0.317-0.647-1.277l0.498-1.498c0.2-0.604 0.455-1.263 0.741-1.74 0.366-0.672 0.886-0.872 1.951-0.916 0.157-0.147 0.274-0.603 0.172-0.737-0.747-0.097-2.08-0.39-2.387-0.392zm-18.217 5.422c-1.3187-0.114-2.5235 0.772-2.8321 2.107-0.4689 1.408 0.4686 3.048 1.9942 3.4 1.4081 0.469 3.0497-0.466 3.4027-1.992 0.469-1.525-0.47-3.053-1.9945-3.404-0.1907-0.059-0.3819-0.095-0.5703-0.111zm233.77 0.269c-0.19 0.008-0.38 0.034-0.57 0.078-1.53 0.352-2.35 1.994-1.99 3.52 0.35 1.407 1.99 2.346 3.51 1.994 1.41-0.47 2.35-1.994 2-3.52-0.41-1.335-1.63-2.13-2.95-2.072zm-235.42 5.871c-1.317-0.035-2.5092 0.85-2.7148 2.184-0.3515 1.522 0.5857 3.052 2.1113 3.402s3.0497-0.7 3.4023-2.23c0.2339-1.523-0.7029-2.932-2.2285-3.284-0.1907-0.044-0.3822-0.067-0.5703-0.072zm220.74 0.236c-0.1 0.014-0.19 0.073-0.23 0.165l0.05 0.613c0.11 1.106-0.09 1.165-1.72 1.449l-6.2 1.083c-1.8 0.31-1.89 0.11-2.18-0.966l-0.14-0.5c-0.15-0.187-0.45-0.066-0.48 0.133 0.22 1.063 0.42 2.103 0.6 3.123 0.18 1.03 0.34 2.08 0.49 3.1 0.1 0.18 0.41 0.15 0.5-0.04l-0.04-0.52c-0.09-1.11-0.08-1.32 1.72-1.64l2.17-0.38c0.36-0.06 0.38-0.04 0.5 0.66 0.14 0.77 0.11 1.03-0.32 1.54-0.56 0.67-1.38 1.48-1.99 2.24-1.32 1.69-1.77 3.01-1.38 5.24 0.14 0.81 0.27 1.25 0.37 1.52 0.1 0.05 0.28 0.02 0.33-0.11-0.03-0.28-0.05-0.97 0.24-1.69 0.47-1.21 1.71-2.62 3.67-4.88 0.09-0.11 0.22-0.18 0.29-0.05 0.54 1.08 1.61 2.59 3.17 2.32 1.22-0.21 1.87-1.21 2.12-2.48 0.22-1.09 0.12-2.7-0.2-4.51-0.34-1.9-0.73-3.869-1.09-5.316-0.06-0.085-0.16-0.117-0.25-0.104zm16.32 0.038c-0.19-0.007-0.38 0.004-0.57 0.033-1.52 0.352-2.46 1.878-2.23 3.399 0.35 1.53 1.88 2.47 3.41 2.11 1.52-0.23 2.46-1.76 2.11-3.281-0.21-1.334-1.4-2.218-2.72-2.261zm-221.16 2.578c-0.096-0.011-0.192 0.018-0.248 0.105-0.055 0.659-0.147 1.429-0.264 2.269-0.103 0.75-0.231 1.54-0.398 2.5 0.06 0.2 0.33 0.26 0.49 0.11l0.213-0.66c0.217-0.68 0.363-0.73 0.994-0.27 2.148 1.56 4.307 3.29 6.281 4.85-0.424 0.18-1.518 0.67-2.343 0.98l-3.27 1.27c-1.873 0.71-2.275 0.85-2.428 0.83-0.137-0.02-0.196-0.22-0.211-0.75l-0.021-0.59c-0.091-0.23-0.366-0.25-0.498-0.05-0.138 1.24-0.23 2.04-0.377 3.09-0.126 0.91-0.282 1.91-0.441 2.82 0.018 0.24 0.324 0.28 0.466 0.14l0.162-0.55c0.267-0.92 0.535-1.09 1.768-1.59l7.75-3.09c0.776-0.32 1.662-0.58 2.383-0.77 0.067-0.11 0.126-0.27 0.148-0.43 0.024-0.16 0.016-0.36-0.029-0.41-0.815-0.52-2.659-1.89-4.082-3.04l-1.934-1.6c-1.577-1.29-2.628-2.13-3.355-2.9-0.44-0.46-0.488-0.99-0.498-1.54l-0.004-0.597c-0.06-0.068-0.158-0.117-0.254-0.127zm204.96 2.054c0.36 0.01 0.43 0.24 0.59 1.15 0.35 2.02-0.61 3.41-1.94 3.64-1.62 0.28-2.61-0.62-3.01-2.9-0.2-1.11-0.17-1.12 0.37-1.21l3.53-0.62c0.2-0.03 0.35-0.06 0.46-0.06zm-222.15 1.35c-1.3164 0.07-2.5102 1.05-2.7148 2.38-0.2351 1.53 0.8201 2.93 2.3457 3.17 1.642 0.23 3.0501-0.82 3.2851-2.35 0.2339-1.52-0.822-2.93-2.3476-3.17-0.1906-0.03-0.3803-0.04-0.5684-0.03zm239.64 0.24c-0.19-0.01-0.38 0-0.57 0.03-1.52 0.23-2.58 1.76-2.35 3.28 0.24 1.53 1.65 2.58 3.17 2.35 1.64-0.23 2.7-1.76 2.47-3.28-0.31-1.34-1.43-2.31-2.72-2.38zm-240 6.01c-1.6431-0.12-3.0504 0.94-3.168 2.58-0.1175 1.53 0.9389 2.94 2.5821 3.05 1.5244 0.12 2.9312-0.94 3.0488-2.46 0.1175-1.64-0.9385-2.93-2.4629-3.17zm240.93 0.33c-0.18-0.01-0.37-0.01-0.56 0.02-1.53 0.12-2.7 1.53-2.46 3.05 0.11 1.53 1.52 2.7 3.05 2.58 1.64-0.23 2.69-1.64 2.58-3.16-0.21-1.34-1.31-2.4-2.61-2.49zm-15.37 5.73c-0.11-0.01-0.22 0.02-0.27 0.11l-0.05 0.35c-0.05 0.33-0.18 0.99-0.34 1.25-0.49 0.81-0.77 0.79-2.11 0.8l-4.08 0.03c-1.36 0.01-2.85 0.02-3.39-0.28-0.28-0.16-0.35-0.59-0.4-1.03l-0.09-0.52c-0.12-0.19-0.42-0.14-0.5 0.05 0.04 0.83 0.06 1.46 0.07 2.45 0.01 0.9 0 1.82-0.03 2.69 0.05 0.24 0.38 0.26 0.5 0.04l0.05-0.52c0.06-0.59 0.16-0.99 0.42-1.2 0.51-0.41 2.09-0.44 3.38-0.45l3.36-0.03c0.91-0.01 1.1-0.01 1.1 0.06-0.25 0.4-0.9 1.16-2.15 2.71l-4.55 5.55c-1.4 1.71-1.97 2.4-2.33 2.78-0.02 0.28 0.05 0.62 0.24 0.8 0.4-0.07 2.52-0.09 3.03-0.09l4.12-0.04c1.36-0.01 2.85-0.02 3.39 0.31 0.28 0.16 0.35 0.56 0.4 1.01l0.09 0.54c0.12 0.19 0.42 0.14 0.5-0.05-0.04-0.85-0.06-1.46-0.07-2.48-0.01-0.91 0-1.79 0.03-2.71-0.05-0.24-0.38-0.26-0.5-0.05l-0.05 0.55c-0.06 0.59-0.16 0.97-0.42 1.18-0.51 0.43-2.09 0.47-3.38 0.48l-3.36 0.02c-0.28 0-0.36 0-0.41-0.07 0.1-0.23 1.91-2.44 2.69-3.44l1.84-2.37c0.65-0.83 2.79-3.42 3.53-3.82-0.04-0.57-0.06-1.14-0.06-1.63-0.01-0.59-0.03-1.89 0.03-2.78-0.03-0.12-0.13-0.19-0.23-0.2zm-226.27 0.28c-1.5256-0.12-2.9316 1.05-2.9316 2.69-0.1175 1.53 1.0556 2.82 2.5801 2.94 1.6431 0.12 2.932-1.06 3.0507-2.7 0.1175-1.53-1.1736-2.82-2.6992-2.93zm241.79 0.35c-1.65 0-2.82 1.41-2.7 2.93 0.11 1.53 1.4 2.7 2.93 2.7 1.52-0.12 2.81-1.41 2.7-3.05-0.12-1.53-1.41-2.7-2.93-2.58zm-226.61 2.74c-0.101 0.01-0.196 0.07-0.231 0.16 0.034 1.04 0.048 2.1 0.045 3.14-0.002 1.08-0.021 2.14-0.056 3.18 0.067 0.19 0.377 0.21 0.498 0.05l0.052-0.52c0.105-1.11 0.158-1.32 1.981-1.32l6.4 0.01c1.823 0 1.875 0.21 1.975 1.32l0.049 0.52c0.12 0.17 0.43 0.15 0.5-0.04-0.032-1.04-0.048-2.15-0.045-3.19 0.002-1.04 0.022-2.1 0.058-3.14-0.068-0.19-0.376-0.21-0.498-0.05l-0.052 0.52c-0.106 1.11-0.158 1.32-1.981 1.32l-6.4-0.01c-1.824 0-1.874-0.21-1.975-1.32l-0.051-0.52c-0.06-0.08-0.168-0.12-0.269-0.11zm-15.535 3.24c-1.5539 0-2.8145 1.26-2.8145 2.82 0 1.55 1.2606 2.81 2.8145 2.81 1.5561 0 2.8164-1.26 2.8164-2.81 0-1.56-1.2603-2.82-2.8164-2.82zm242.37 0.35c-1.56 0-2.82 1.26-2.82 2.82 0 1.55 1.26 2.81 2.82 2.81 1.55 0 2.81-1.26 2.81-2.81 0-1.56-1.26-2.82-2.81-2.82zm-242.37 5.99c-1.5245 0.11-2.6973 1.4-2.6973 2.93 0.1175 1.64 1.4069 2.81 3.0488 2.7 1.5256-0.12 2.6992-1.41 2.6992-2.94-0.1187-1.52-1.4076-2.81-3.0507-2.69zm242.37 0.47c-1.65 0-2.93 1.17-3.05 2.69 0 1.53 1.17 2.94 2.7 2.94 1.52 0.11 2.93-1.06 2.93-2.58 0.12-1.65-1.06-2.94-2.58-3.05zm-226.34 1.04c-0.097 0.03-0.183 0.1-0.215 0.19 0.138 0.84 0.228 1.44 0.352 2.45 0.11 0.92 0.199 1.78 0.275 2.7 0.08 0.23 0.408 0.22 0.502-0.01l-0.016-0.54c-0.002-0.6 0.055-0.98 0.286-1.23 0.461-0.48 2.03-0.69 3.314-0.85l3.334-0.4c0.274-0.04 0.358-0.05 0.418 0.01-0.074 0.25-1.622 2.65-2.289 3.73l-1.561 2.56c-0.551 0.9-2.393 3.72-3.08 4.2 0.102 0.56 0.188 1.12 0.246 1.61 0.072 0.59 0.244 1.87 0.285 2.77 0.08 0.23 0.426 0.21 0.508 0.04l0.008-0.36c0.012-0.34 0.069-1.01 0.191-1.28 0.399-0.86 0.676-0.87 2.01-1.03l4.051-0.49c1.351-0.17 2.838-0.35 3.404-0.11 0.294 0.13 0.414 0.54 0.52 0.98l0.148 0.51c0.143 0.17 0.427 0.09 0.489-0.11-0.133-0.81-0.228-1.44-0.348-2.43-0.108-0.89-0.2-1.8-0.272-2.67-0.079-0.23-0.408-0.21-0.502 0.01l0.012 0.52c0.003 0.6-0.053 1.01-0.283 1.25-0.464 0.46-2.034 0.67-3.316 0.83l-3.334 0.4c-0.907 0.11-1.093 0.14-1.102 0.06 0.208-0.42 0.766-1.25 1.83-2.92l3.897-6.04c1.197-1.85 1.696-2.6 2.009-3.02-0.017-0.28-0.124-0.61-0.336-0.77-0.384 0.12-2.487 0.37-3 0.44l-4.085 0.49c-1.351 0.17-2.838 0.35-3.407 0.08-0.294-0.13-0.413-0.52-0.517-0.96l-0.151-0.52c-0.07-0.09-0.178-0.11-0.275-0.09zm-15.684 4.82c-1.5256 0.12-2.698 1.53-2.4629 3.17 0.1175 1.52 1.5252 2.58 3.0508 2.46 1.5256-0.11 2.6976-1.52 2.5801-3.17-0.2351-1.52-1.6424-2.58-3.168-2.46zm241.67 0.47c-1.64-0.12-3.05 0.94-3.17 2.58-0.12 1.53 0.94 2.93 2.46 3.05 1.64 0.24 3.05-0.94 3.17-2.46 0.12-1.53-0.94-2.94-2.46-3.17zm-26.37 0.5c-0.1-0.01-0.2 0.03-0.25 0.11-0.16 1.03-0.34 2.12-0.53 3.14-0.19 1.03-0.39 2.07-0.61 3.08 0.03 0.2 0.33 0.28 0.48 0.14l0.14-0.5c0.3-1.07 0.39-1.27 2.19-0.95l6.28 1.15c1.79 0.33 1.8 0.54 1.71 1.65l-0.05 0.52c0.09 0.19 0.4 0.22 0.5 0.05 0.16-1.03 0.33-2.08 0.52-3.1 0.19-1.07 0.4-2.11 0.62-3.13-0.03-0.19-0.33-0.27-0.48-0.13l-0.14 0.5c-0.3 1.07-0.39 1.27-2.19 0.95l-6.28-1.15c-1.8-0.32-1.81-0.54-1.71-1.65l0.04-0.52c-0.04-0.1-0.14-0.15-0.24-0.16zm-214.03 5.34c-0.1848-0.01-0.3739 0-0.5644 0.03-1.5256 0.23-2.5808 1.64-2.3457 3.16 0.2339 1.65 1.6404 2.7 3.166 2.35 1.642-0.24 2.6991-1.64 2.3477-3.17-0.2057-1.33-1.3096-2.31-2.6036-2.37zm239.09 0.47c-1.37 0.06-2.48 1.04-2.68 2.37-0.24 1.53 0.82 3.05 2.35 3.29 1.52 0.23 2.93-0.83 3.28-2.35 0.23-1.64-0.82-3.05-2.35-3.29-0.2-0.02-0.4-0.03-0.6-0.02zm-26.39 2.79c-0.05 0.01-0.09 0.03-0.12 0.06-0.24 0.79-0.46 1.49-0.71 2.22-0.33 0.91-0.59 1.65-0.86 2.35 0 0.2 0.29 0.33 0.45 0.21l0.31-0.62c0.36-0.8 0.44-0.87 1.25-0.09l1.63 1.58c0.37 0.35 0.38 0.33 0.18 0.91l-1.01 2.97c-0.22 0.62-0.24 0.69-0.75 0.76l-2.58 0.29c-0.79 0.05-0.87-0.05-0.66-0.88l0.12-0.5c-0.05-0.17-0.35-0.25-0.49-0.1-0.25 0.79-0.56 1.79-0.89 2.75-0.39 1.16-0.69 1.98-1.04 2.88 0.03 0.18 0.3 0.27 0.48 0.13l0.16-0.31c0.54-1.09 0.69-1.16 1.96-1.3l7.91-0.87c0.85-0.11 1.71-0.14 2.57-0.24 0.11-0.06 0.2-0.16 0.26-0.34 0.01-0.04-0.4-1.01-0.25-1.83-0.29-0.02-0.62-0.36-1.04-0.83l-4.74-5.05c-0.72-0.77-1.27-1.36-1.6-1.77-0.43-0.52-0.49-0.81-0.33-1.48l0.14-0.7c-0.07-0.16-0.22-0.23-0.35-0.2zm-211.76 2.92c-0.1884 0-0.3796 0.02-0.5703 0.06-1.5244 0.36-2.4639 1.88-2.1113 3.41 0.3514 1.52 1.7595 2.46 3.2851 2.11 1.5245-0.24 2.58-1.76 2.2285-3.29-0.3085-1.33-1.5133-2.31-2.832-2.29zm237.13 0.5c-1.32 0.04-2.53 0.93-2.84 2.26-0.35 1.53 0.71 3.05 2.23 3.4 1.53 0.24 3.05-0.7 3.29-2.22 0.35-1.53-0.59-3.06-2.11-3.41-0.19-0.03-0.39-0.04-0.57-0.03zm-164.77 1.56c-0.113-0.01-0.222 0.2-0.176 0.29l0.265 0.19c0.441 0.32 0.519 0.4-0.039 1.46l-1.992 3.79c-0.557 1.07-0.664 1.05-1.176 0.86l-0.332-0.11c-0.118 0-0.197 0.22-0.136 0.31 0.438 0.2 0.957 0.46 1.476 0.73l1.061 0.56c1.142 0.6 2.015 1.07 2.433 1.31 0.267-0.21 0.899-0.87 1.205-1.25-0.008-0.11-0.157-0.23-0.285-0.23-1.02 0.81-1.21 0.77-2.343 0.18-0.817-0.43-0.938-0.6-0.985-0.81-0.062-0.25 0.11-0.63 0.377-1.14l1.881-3.58c0.556-1.06 0.663-1.04 1.18-0.86l0.246 0.07c0.108-0.01 0.204-0.21 0.135-0.3-0.461-0.22-0.923-0.45-1.374-0.68-0.467-0.25-0.922-0.5-1.421-0.79zm-47.057 1.02c-0.717-0.04-1.465 0.1-2.217 0.32l-1.967 0.57c-1.307 0.39-2.762 0.82-3.351 0.64-0.31-0.08-0.496-0.47-0.688-0.88l-0.228-0.47c-0.169-0.15-0.419-0.02-0.449 0.18 0.278 0.83 0.471 1.43 0.748 2.38 0.258 0.89 0.494 1.75 0.685 2.53 0.115 0.21 0.418 0.15 0.475-0.09l-0.082-0.47c-0.099-0.58-0.089-0.98 0.099-1.25 0.361-0.55 1.893-1.02 3.133-1.39l2.069-0.6c2.514-0.74 4.508 0 5.373 2.96 0.919 3.15-0.724 4.66-3.006 5.33l-3.787 1.11c-1.754 0.52-1.863 0.33-2.289-0.7l-0.194-0.49c-0.162-0.12-0.437-0.02-0.451 0.18 0.324 0.99 0.638 2 0.936 3.02 0.29 1 0.57 2.02 0.8 2.93 0.12 0.17 0.409 0.11 0.479-0.09l-0.063-0.39c-0.195-1.1-0.205-1.32 1.547-1.83l4.203-1.24c1.671-0.49 2.688-1.3 3.102-2.53 0.424-1.25 0.321-2.84-0.301-4.97-0.456-1.56-1.264-3.16-2.535-4.07-0.635-0.45-1.324-0.66-2.041-0.69zm189.42 0.78c0.08-0.03 0.18 0.05 0.38 0.26l1.58 1.59c0.62 0.66 0.97 0.98 1.05 1.11l-0.01 0.04c-0.16 0.07-0.51 0.1-1.5 0.19l-2.27 0.26c-0.45 0.04-0.46-0.05-0.24-0.68l0.8-2.32c0.09-0.27 0.14-0.42 0.21-0.45zm-213.31 2.34c-0.1884 0.01-0.3796 0.04-0.5703 0.08-1.5244 0.47-2.4631 2-1.9941 3.52 0.3514 1.41 1.8767 2.35 3.4023 1.99 1.5247-0.46 2.4627-1.99 1.9937-3.52-0.308-1.33-1.5129-2.12-2.8316-2.07zm79.229 0.18c-0.099-0.03-0.251 0.11-0.248 0.23l0.119 0.14c0.335 0.43 0.385 0.53-0.461 1.41l-2.969 3.11c-0.847 0.88-0.946 0.84-1.379 0.5l-0.339-0.26c-0.116 0-0.251 0.16-0.215 0.26 0.391 0.34 0.908 0.82 1.275 1.17l0.951 0.91c0.976 0.93 1.684 1.63 2.035 2 0.333-0.12 1.123-0.58 1.508-0.88 0.031-0.13-0.088-0.29-0.218-0.3-0.938 0.39-1.354 0.46-2.397-0.57-0.702-0.67-0.779-0.87-0.768-1.09 0.011-0.26 0.283-0.57 0.69-1l1.014-1.06c0.198-0.21 0.224-0.22 0.416-0.03l0.4 0.38c0.725 0.69 0.852 0.85 0.574 1.25l-0.26 0.39c0.019 0.12 0.178 0.27 0.276 0.25 0.247-0.27 0.507-0.58 0.81-0.9 0.295-0.31 0.601-0.59 0.825-0.81 0.023-0.11-0.136-0.26-0.258-0.27l-0.332 0.24c-0.4 0.3-0.55 0.17-1.276-0.52l-0.4-0.39c-0.192-0.18-0.193-0.2 0.014-0.41l1.351-1.42c0.455-0.47 0.471-0.49 0.83-0.14l0.559 0.53c0.224 0.22 0.457 0.47 0.594 0.71 0.202 0.33 0.129 0.66-0.202 1.27 0.02 0.11 0.203 0.25 0.299 0.22 0.294-0.41 0.876-1.12 0.977-1.29-0.124-0.09-0.617-0.54-1.151-1.05l-1.593-1.53c-0.366-0.35-0.75-0.73-1.051-1.05zm155.08 0.29c-1.32-0.05-2.53 0.74-2.83 2.07-0.47 1.53 0.47 3.05 1.99 3.52 1.53 0.36 3.05-0.47 3.4-1.99 0.47-1.53-0.46-3.05-1.99-3.52-0.19-0.04-0.38-0.07-0.57-0.08zm-91.23 4.2c-0.11 0.03-0.14 0.26-0.07 0.33l0.31 0.09c0.53 0.16 0.62 0.21 0.45 1.4l-0.65 4.24c-0.17 1.19-0.28 1.21-0.83 1.2h-0.35c-0.11 0.04-0.11 0.27-0.02 0.33 0.48 0.05 1.05 0.13 1.63 0.22l1.19 0.18c1.27 0.19 2.25 0.35 2.73 0.44 0.18-0.29 0.56-1.12 0.73-1.58-0.05-0.1-0.22-0.16-0.35-0.12-0.7 1.09-0.89 1.12-2.16 0.93-0.91-0.14-1.08-0.25-1.19-0.43-0.14-0.23-0.1-0.64-0.02-1.21l0.61-4c0.18-1.19 0.28-1.21 0.83-1.2l0.26-0.01c0.1-0.04 0.12-0.28 0.03-0.34-0.51-0.05-1.02-0.12-1.52-0.2-0.53-0.08-1.04-0.16-1.61-0.27zm-57.752 1.12c-0.373 0.17-1.051 0.45-1.67 0.66-0.065 0.11 0.051 0.33 0.154 0.35 1.005-0.21 1.291-0.03 1.918 0.82l0.383 0.52c0.178 0.24 0.165 0.27-0.225 0.55l-4.014 2.95c-0.984 0.72-1.074 0.66-1.431 0.25l-0.332-0.36c-0.095-0.03-0.272 0.12-0.256 0.22 0.455 0.58 0.784 1.01 1.084 1.43 0.3 0.4 0.598 0.83 0.975 1.38 0.091 0.04 0.266-0.07 0.283-0.18l-0.207-0.37c-0.275-0.47-0.309-0.57 0.675-1.3l4.016-2.94c0.39-0.29 0.414-0.29 0.592-0.05l0.389 0.53c0.729 0.99 0.682 1.3 0.046 1.95-0.003 0.14 0.131 0.28 0.239 0.27 0.277-0.25 1.132-0.76 1.582-0.95 0.013-0.03-0.003-0.09-0.043-0.15-0.028-0.04-0.073-0.06-0.119-0.08-0.297 0.04-0.427-0.08-0.762-0.53l-2.781-3.79c-0.463-0.63-0.55-0.77-0.354-0.99 0.015-0.04-0.001-0.08-0.029-0.12-0.034-0.05-0.071-0.07-0.113-0.07zm65.222 0.23c-0.1 0.02-0.16 0.23-0.09 0.32l0.24 0.09c0.51 0.17 0.61 0.22 0.37 1.42l-0.86 4.2c-0.24 1.2-0.35 1.22-0.89 1.18l-0.26-0.02c-0.09 0.06-0.12 0.27-0.04 0.33 0.5 0.08 1.03 0.18 1.53 0.28s1.01 0.21 1.5 0.34c0.1-0.03 0.15-0.23 0.09-0.33l-0.25-0.08c-0.51-0.18-0.61-0.23-0.37-1.43l0.86-4.2c0.24-1.2 0.35-1.21 0.89-1.17l0.26 0.02c0.09-0.07 0.12-0.27 0.04-0.34-0.5-0.08-1.01-0.17-1.51-0.27-0.52-0.1-1.02-0.22-1.51-0.34zm-148.4 0.04c-0.3594-0.03-0.7261 0-1.0781 0.12-1.5245 0.47-2.3471 2.11-1.877 3.64 0.469 1.41 2.1111 2.23 3.6363 1.76 1.407-0.47 2.229-2.11 1.76-3.52-0.352-1.15-1.363-1.89-2.4412-2zm229.96 0.47c-1.1 0.11-2.04 0.85-2.39 2-0.47 1.4 0.23 3.05 1.76 3.52 1.52 0.47 3.05-0.36 3.52-1.76 0.58-1.53-0.24-3.17-1.76-3.64-0.39-0.12-0.77-0.15-1.13-0.12zm-74.65 1.49c-0.85 0-1.58 0.3-2.14 0.84-0.66 0.62-1.05 1.54-1.17 2.5-0.13 0.96 0.01 1.97 0.45 2.77 0.55 1.03 1.52 1.61 2.59 1.84 0.52 0.11 1.21 0.1 1.78 0.06 0.18-0.02 0.35-0.02 0.45 0 0.04-0.03 0.05-0.12 0.03-0.17-0.16-0.14-0.17-0.44-0.11-0.84l0.08-0.66c0.09-0.7 0.16-0.79 0.5-0.77h0.17c0.09-0.07 0.1-0.26 0.02-0.34-0.39-0.06-0.69-0.11-1.1-0.2-0.62-0.13-1.05-0.23-1.39-0.33-0.08 0.05-0.11 0.24-0.05 0.33l0.31 0.14c0.58 0.25 0.58 0.32 0.48 1.13l-0.06 0.41c-0.05 0.41-0.1 0.61-0.17 0.7-0.13 0.15-0.4 0.19-0.83 0.09-0.53-0.11-1.22-0.5-1.61-1.33s-0.42-1.84-0.3-2.76c0.25-1.93 1.2-3.21 2.78-2.88 0.89 0.19 1.45 0.87 1.51 2.01 0.03 0.12 0.23 0.15 0.29 0.04 0.07-0.9 0.08-1.49 0.12-1.83-0.11-0.02-0.36-0.13-0.56-0.23-0.31-0.14-0.75-0.33-1.18-0.42-0.31-0.07-0.61-0.1-0.89-0.1zm4.97 1.48c-0.08 0.04-0.1 0.27-0.03 0.33l0.21 0.05c0.46 0.09 0.54 0.13 0.5 1.35l-0.15 4.29c-0.04 1.22-0.13 1.25-0.58 1.31l-0.14 0.02c-0.07 0.07-0.07 0.28 0.01 0.33 0.36 0 0.8 0.01 1.23 0.02 0.42 0.03 0.86 0.06 1.36 0.1 0.08-0.04 0.1-0.25 0.03-0.33l-0.28-0.06c-0.46-0.08-0.54-0.12-0.5-1.34l0.06-1.7c0.01-0.31 0.04-0.33 0.53-0.3l2.27 0.1c0.49 0.02 0.52 0.05 0.51 0.36l-0.06 1.69c-0.04 1.22-0.13 1.26-0.59 1.3l-0.21 0.03c-0.07 0.08-0.07 0.28 0.01 0.33 0.42 0 0.86 0.01 1.31 0.03 0.42 0.02 0.86 0.05 1.28 0.09 0.08-0.04 0.1-0.25 0.03-0.33l-0.21-0.04c-0.45-0.09-0.54-0.13-0.5-1.36l0.15-4.28c0.04-1.22 0.13-1.25 0.59-1.3l0.17-0.03c0.07-0.05 0.07-0.29-0.01-0.34-0.38 0.01-0.82 0-1.24-0.02-0.43-0.02-0.87-0.05-1.31-0.09-0.08 0.04-0.1 0.27-0.03 0.33l0.21 0.05c0.45 0.08 0.54 0.12 0.5 1.34l-0.05 1.4c-0.01 0.32-0.04 0.35-0.54 0.32l-2.26-0.1c-0.5-0.03-0.52-0.05-0.51-0.37l0.04-1.4c0.04-1.22 0.14-1.25 0.59-1.3l0.17-0.03c0.07-0.05 0.06-0.28-0.01-0.33-0.38 0-0.82 0-1.24-0.02-0.43-0.02-0.88-0.06-1.31-0.1zm9.82 0.3c-0.05 0-0.09 0.01-0.11 0.05-0.08 0.4-0.26 1.11-0.44 1.74 0.03 0.11 0.24 0.15 0.31 0.08 0.4-0.93 0.67-1.06 1.59-1.06h0.56c0.25 0 0.26 0.02 0.25 0.5l-0.15 4.98c-0.04 1.22-0.13 1.25-0.6 1.3l-0.42 0.06c-0.07 0.05-0.07 0.28 0.01 0.33 0.63-0.02 1.1-0.04 1.54-0.04s0.89 0.02 1.46 0.04c0.08-0.05 0.1-0.25 0.03-0.33l-0.35-0.05c-0.47-0.06-0.56-0.09-0.52-1.31l0.15-4.98c0.02-0.48 0.03-0.5 0.29-0.5h0.57c1.06 0 1.24 0.22 1.34 1.11 0.09 0.09 0.26 0.06 0.31-0.03-0.01-0.37 0.1-1.36 0.21-1.83-0.02-0.04-0.07-0.06-0.13-0.06-0.04 0-0.08 0.03-0.12 0.05-0.13 0.26-0.28 0.3-0.76 0.3h-4.07c-0.67 0-0.81-0.01-0.85-0.3-0.02-0.04-0.06-0.05-0.1-0.05zm-168.1 2.28c-0.361-0.01-0.728 0.05-1.08 0.2-1.5246 0.47-2.2293 2.11-1.6428 3.64 0.469 1.41 2.1128 2.23 3.6368 1.64 1.408-0.59 2.111-2.23 1.643-3.64-0.44-1.14-1.474-1.82-2.557-1.84zm226.01 0.46c-1.08 0.02-2.12 0.68-2.56 1.74-0.58 1.52 0.12 3.16 1.65 3.75 1.41 0.47 3.05-0.24 3.63-1.64 0.59-1.53-0.11-3.17-1.64-3.64-0.35-0.15-0.72-0.21-1.08-0.21zm-23.09 0.26c-0.27 0.01-0.55 0.07-0.82 0.19-1.17 0.46-1.64 1.76-1.17 2.81 0.47 1.17 1.76 1.65 2.82 1.17 1.17-0.46 1.64-1.76 1.17-2.93-0.35-0.79-1.17-1.25-2-1.24zm-178.88 3.17c-0.29 0.03-0.576 0.11-0.84 0.25-1.055 0.59-1.407 1.88-0.82 2.94 0.47 1.05 1.877 1.52 2.933 0.93 1.056-0.58 1.407-1.87 0.938-2.93-0.44-0.79-1.342-1.25-2.211-1.19zm64.299 0.91c-0.4 0.09-1.126 0.21-1.776 0.27-0.088 0.09-0.023 0.33 0.073 0.38 1.026 0.02 1.265 0.26 1.683 1.23l0.25 0.59c0.12 0.28 0.11 0.3-0.34 0.49l-4.574 1.97c-1.124 0.48-1.198 0.4-1.453-0.08l-0.244-0.43c-0.085-0.05-0.294 0.05-0.299 0.16 0.311 0.67 0.537 1.16 0.738 1.62 0.199 0.47 0.393 0.95 0.637 1.58 0.078 0.06 0.272-0.01 0.314-0.11l-0.121-0.4c-0.161-0.53-0.17-0.63 0.953-1.12l4.579-1.96c0.45-0.19 0.47-0.19 0.59 0.09l0.26 0.6c0.48 1.13 0.37 1.42-0.4 1.91-0.03 0.13 0.07 0.3 0.17 0.32 0.33-0.18 1.28-0.48 1.76-0.56 0.02-0.04 0.02-0.1-0.01-0.17-0.02-0.04-0.06-0.07-0.09-0.11-0.3-0.02-0.4-0.16-0.63-0.68l-1.85-4.32c-0.31-0.72-0.36-0.88-0.12-1.05 0.02-0.03 0.01-0.08 0-0.12-0.03-0.05-0.06-0.09-0.1-0.1zm-86.112 1.04c-0.362 0.01-0.73 0.08-1.082 0.23-1.408 0.7-2.11 2.34-1.406 3.75 0.587 1.41 2.228 2.11 3.754 1.41 1.408-0.59 1.994-2.23 1.408-3.76-0.529-1.05-1.585-1.65-2.674-1.63zm221.44 0.47c-1.09-0.01-2.12 0.58-2.56 1.63-0.7 1.41 0 3.17 1.41 3.76 1.4 0.58 3.05 0 3.75-1.41 0.59-1.41 0-3.17-1.52-3.75-0.36-0.15-0.72-0.22-1.08-0.23zm-133.1 5.26c-0.09-0.04-0.28 0.1-0.27 0.2l0.13 0.22c0.29 0.46 0.33 0.56-0.62 1.33l-3.32 2.71c-0.947 0.78-1.038 0.72-1.443 0.35l-0.119-0.11c-0.114-0.01-0.268 0.13-0.245 0.23 0.294 0.32 0.632 0.72 0.952 1.11s0.638 0.8 1 1.28c0.094 0.04 0.263-0.08 0.273-0.19l-0.182-0.3c-0.298-0.46-0.338-0.56 0.61-1.33l1.314-1.07c0.24-0.2 0.28-0.18 0.65 0.27l1.71 2.09c0.37 0.46 0.37 0.5 0.13 0.7l-1.31 1.06c-0.95 0.78-1.04 0.72-1.44 0.34l-0.18-0.17c-0.117-0.01-0.273 0.13-0.249 0.23 0.339 0.38 0.679 0.77 1.009 1.18 0.32 0.39 0.64 0.8 0.94 1.21 0.1 0.04 0.27-0.08 0.28-0.19l-0.14-0.22c-0.29-0.46-0.32-0.57 0.62-1.34l3.33-2.71c0.94-0.77 1.04-0.71 1.43-0.34l0.16 0.14c0.09 0.03 0.27-0.13 0.24-0.23-0.31-0.34-0.64-0.73-0.96-1.13-0.32-0.39-0.64-0.8-0.96-1.22-0.09-0.05-0.28 0.09-0.27 0.19l0.13 0.22c0.29 0.46 0.33 0.56-0.62 1.34l-1.08 0.88c-0.25 0.2-0.29 0.19-0.66-0.27l-1.71-2.09c-0.37-0.45-0.37-0.5-0.12-0.7l1.08-0.88c0.94-0.77 1.04-0.71 1.44-0.34l0.14 0.13c0.1 0.03 0.27-0.13 0.25-0.22-0.3-0.34-0.64-0.74-0.96-1.13s-0.65-0.82-0.96-1.23zm-85.762 0.05c-0.363 0.03-0.73 0.14-1.082 0.31-1.406 0.71-1.992 2.35-1.171 3.76 0.704 1.4 2.347 1.99 3.753 1.29 1.409-0.71 1.994-2.47 1.172-3.88-0.527-1.05-1.582-1.58-2.672-1.48zm27.838 0.26c-0.432 0.04-0.83 0.18-1.181 0.41-1.28 0.88-1.273 2.75-0.877 4.62l0.23 1.07c0.397 1.86 0.102 2.83-0.709 3.38-0.866 0.6-2.09 0.2-3.097-1.28-1.301-1.91-0.497-3.99-0.01-4.84-0.007-0.22-0.245-0.54-0.467-0.56-0.894 0.58-1.705 1.5-1.764 2.05h0.002c0.094 0.51 0.358 1.81 1.576 3.6 1.923 2.83 4.227 3.74 5.848 2.64 1.434-0.98 1.362-2.98 0.984-4.58l-0.353-1.52c-0.378-1.63-0.122-2.63 0.475-3.03 0.753-0.52 1.928-0.38 2.99 1.18 1.126 1.65 0.637 2.98 0.097 3.78 0.02 0.24 0.271 0.58 0.465 0.59 0.669-0.45 1.475-1.29 1.643-1.71-0.495-1-0.828-1.86-1.518-2.87-1.452-2.13-3.038-3.02-4.334-2.93zm188.43 0.11c-1.08-0.06-2.14 0.53-2.67 1.59-0.7 1.4-0.23 3.05 1.17 3.75 1.41 0.7 3.17 0.23 3.87-1.17 0.71-1.41 0.12-3.17-1.29-3.88-0.35-0.17-0.71-0.27-1.08-0.29zm-28.69 0.1c-0.13 0.03-0.23 0.09-0.34 0.25-0.03 0.04 0.12 1.08-0.25 1.83 0.29 0.1 0.51 0.51 0.79 1.07l3.25 6.1c0.49 0.93 0.88 1.64 1.09 2.13 0.27 0.61 0.25 0.91-0.07 1.51l-0.33 0.63c0.04 0.23 0.26 0.35 0.43 0.27 0.43-0.71 0.82-1.32 1.26-1.96 0.56-0.79 1-1.43 1.45-2.04 0.05-0.19-0.19-0.38-0.39-0.31l-0.45 0.51c-0.56 0.67-0.66 0.72-1.23-0.23l-1.17-1.96c-0.26-0.44-0.28-0.42 0.07-0.92l1.76-2.59c0.37-0.55 0.41-0.6 0.92-0.54l2.56 0.4c0.78 0.16 0.83 0.27 0.41 1.02l-0.25 0.45c0.01 0.18 0.28 0.33 0.45 0.22 0.45-0.69 1-1.57 1.57-2.41 0.69-1 1.19-1.72 1.76-2.5 0.03-0.18-0.22-0.34-0.42-0.25l-0.24 0.26c-0.8 0.9-0.97 0.94-2.23 0.74l-7.86-1.24c-0.85-0.12-1.69-0.32-2.54-0.44zm1.25 2.83c0.16-0.03 0.51 0.04 1.49 0.22l2.26 0.34c0.45 0.07 0.43 0.17 0.06 0.72l-1.38 2.02c-0.32 0.47-0.36 0.53-0.62 0.03l-1.11-1.94c-0.43-0.8-0.68-1.2-0.73-1.35l0.03-0.04zm-185.4 2.25c-0.541-0.04-1.092 0.08-1.576 0.39-1.408 0.71-1.877 2.47-1.055 3.87 0.703 1.3 2.465 1.76 3.871 0.94 1.291-0.7 1.759-2.46 1.055-3.75-0.513-0.88-1.392-1.39-2.295-1.45zm209.42 0.43c-0.91 0.08-1.79 0.57-2.3 1.37-0.7 1.41-0.23 3.05 1.06 3.87 1.4 0.82 3.16 0.36 3.87-1.05 0.82-1.29 0.35-3.05-1.06-3.87-0.48-0.27-1.03-0.37-1.57-0.32zm-121.22 1.49c-0.11-0.01-0.23 0.16-0.2 0.27l0.15 0.12c0.42 0.35 0.49 0.43-0.15 1.47l-2.23 3.66c-0.64 1.04-0.74 1.02-1.23 0.79l-0.39-0.19c-0.11 0.03-0.21 0.21-0.16 0.3 0.46 0.25 1.06 0.61 1.5 0.87l1.12 0.68c1.15 0.71 1.99 1.23 2.41 1.51 0.3-0.18 0.97-0.79 1.28-1.17 0-0.13-0.15-0.26-0.28-0.25-0.83 0.59-1.22 0.74-2.46-0.04-0.82-0.51-0.94-0.69-0.97-0.9-0.05-0.25 0.15-0.62 0.45-1.12l0.76-1.25c0.15-0.24 0.17-0.26 0.4-0.12l0.47 0.29c0.86 0.52 1.01 0.64 0.83 1.1l-0.17 0.43c0.04 0.11 0.23 0.22 0.32 0.18 0.18-0.32 0.37-0.68 0.6-1.05 0.22-0.36 0.46-0.7 0.63-0.97 0-0.1-0.19-0.21-0.31-0.19l-0.27 0.29c-0.33 0.38-0.5 0.29-1.36-0.23l-0.47-0.29c-0.22-0.14-0.23-0.16-0.07-0.41l1.01-1.66c0.34-0.56 0.35-0.58 0.78-0.32l0.66 0.4c0.26 0.16 0.54 0.36 0.73 0.56 0.26 0.28 0.26 0.61 0.07 1.28 0.04 0.11 0.25 0.21 0.34 0.15 0.2-0.46 0.61-1.27 0.68-1.46-0.14-0.06-0.72-0.4-1.35-0.78l-1.88-1.15c-0.43-0.26-0.88-0.55-1.24-0.8zm34.61 3.16c-0.11 0.1-0.67 0.47-1.29 0.87l-1.85 1.19c-0.43 0.27-0.89 0.55-1.27 0.77-0.05 0.09 0.05 0.27 0.16 0.29l0.16-0.08c0.51-0.22 0.61-0.25 1.27 0.78l2.31 3.61c0.66 1.03 0.59 1.11 0.16 1.45l-0.33 0.27c-0.02 0.11 0.1 0.28 0.2 0.27 0.43-0.3 1.01-0.69 1.44-0.96l1.1-0.71c1.14-0.73 1.98-1.25 2.42-1.5-0.03-0.35-0.29-1.23-0.49-1.67-0.13-0.06-0.31 0.02-0.35 0.14 0.16 1 0.13 1.42-1.12 2.19-0.81 0.52-1.03 0.55-1.23 0.49-0.25-0.07-0.49-0.41-0.81-0.9l-0.79-1.24c-0.16-0.24-0.16-0.26 0.06-0.41l0.47-0.3c0.84-0.54 1.02-0.62 1.35-0.26l0.32 0.35c0.11 0 0.3-0.11 0.3-0.21-0.21-0.31-0.44-0.64-0.68-1-0.23-0.36-0.43-0.72-0.59-0.99-0.1-0.05-0.28 0.07-0.32 0.19l0.14 0.37c0.2 0.46 0.05 0.58-0.8 1.12l-0.46 0.3c-0.23 0.14-0.24 0.13-0.41-0.12l-1.04-1.64c-0.36-0.55-0.37-0.57 0.05-0.84l0.65-0.41c0.26-0.17 0.56-0.34 0.83-0.41 0.36-0.12 0.66 0.03 1.17 0.49 0.12 0.01 0.3-0.14 0.29-0.24-0.32-0.38-0.88-1.11-1.02-1.25zm-119.65 0.3c-0.541 0.01-1.093 0.18-1.576 0.53-1.291 0.82-1.758 2.58-0.82 3.87 0.821 1.29 2.58 1.64 3.871 0.82 1.289-0.82 1.642-2.58 0.82-3.87-0.513-0.88-1.392-1.35-2.295-1.35zm174.14 0.42c-0.55-0.02-1.14 0.13-1.72 0.4-1.02 0.46-2.26 1.49-3.53 2.81-1.34 1.4-2.7 2.87-3.65 4.01-0.07 0.2 0.13 0.39 0.33 0.35l0.46-0.4c0.83-0.74 1-0.61 2.18 0.53l4.52 4.36c1.31 1.26 1.2 1.45 0.51 2.32l-0.32 0.41c-0.06 0.23 0.21 0.39 0.38 0.31 0.73-0.81 1.46-1.58 2.18-2.33 0.72-0.74 1.47-1.49 2.21-2.22 0.08-0.18-0.12-0.41-0.32-0.37l-0.4 0.33c-0.84 0.73-1.03 0.84-2.34-0.42l-1.58-1.52c-0.26-0.25-0.26-0.28 0.24-0.79 0.54-0.56 0.76-0.7 1.43-0.64 0.88 0.05 2.01 0.23 2.97 0.28 2.15 0.07 3.48-0.34 5.05-1.97 0.58-0.6 0.85-0.95 1.01-1.19-0.01-0.11-0.15-0.24-0.28-0.21-0.21 0.19-0.76 0.61-1.51 0.8-1.25 0.33-3.12 0.17-6.1-0.08-0.14-0.01-0.27-0.07-0.21-0.21 0.55-1.06 1.15-2.82 0.01-3.91-0.44-0.43-0.96-0.63-1.52-0.65zm28.95 0.02c-0.9 0.01-1.78 0.45-2.3 1.26-0.82 1.29-0.47 3.05 0.82 3.87 1.3 0.94 3.05 0.59 3.87-0.82 0.83-1.29 0.47-3.05-0.82-3.87-0.48-0.31-1.03-0.45-1.57-0.44zm-112.2 0.19c-0.1 0.02-0.16 0.2-0.11 0.3l0.27 0.13c0.5 0.22 0.46 0.36 0.11 1.41l-1.32 4c-0.39 1.16-0.5 1.16-1.04 1.06l-0.25-0.05c-0.12 0.04-0.15 0.25-0.08 0.32 0.51 0.15 1.01 0.3 1.49 0.46s0.97 0.33 1.44 0.52c0.1-0.02 0.18-0.21 0.13-0.31l-0.23-0.12c-0.49-0.23-0.58-0.3-0.2-1.46l0.47-1.4c0.07-0.23 0.09-0.23 0.42-0.13 0.36 0.12 0.47 0.21 0.55 0.6 0.12 0.51 0.23 1.22 0.37 1.78 0.33 1.24 0.76 1.85 1.81 2.2 0.38 0.13 0.6 0.17 0.74 0.18 0.05-0.05 0.09-0.17 0.05-0.23-0.12-0.06-0.42-0.23-0.64-0.59-0.37-0.6-0.61-1.71-0.99-3.48-0.03-0.08-0.02-0.17 0.06-0.18 0.61-0.04 1.55-0.29 1.89-1.3 0.26-0.78 0.02-1.43-0.44-1.91-0.39-0.42-1.1-0.78-1.95-1.06-0.9-0.3-1.84-0.58-2.55-0.74zm2.2 1.12c0.08 0.02 0.19 0.05 0.34 0.1 0.95 0.31 1.25 1.25 0.97 2.12-0.35 1.03-1.02 1.4-2.09 1.04-0.52-0.17-0.51-0.19-0.4-0.55l0.76-2.27c0.12-0.38 0.17-0.49 0.42-0.44zm-60.283 0.1c-0.168 0.25-0.616 0.38-1.227 0.52l-6.687 1.76c-1.018 0.26-1.805 0.47-2.324 0.57-0.656 0.12-0.947 0.03-1.459-0.42l-0.539-0.46c-0.226-0.02-0.4 0.17-0.352 0.35 0.583 0.58 1.088 1.11 1.613 1.68 0.64 0.72 1.166 1.3 1.651 1.88 0.177 0.09 0.42-0.1 0.398-0.31l-0.398-0.56c-0.526-0.7-0.55-0.8 0.513-1.14l2.172-0.68c0.486-0.16 0.469-0.18 0.883 0.27l2.119 2.31c0.446 0.49 0.494 0.54 0.311 1.02l-0.975 2.4c-0.337 0.73-0.46 0.74-1.084 0.17l-0.389-0.35c-0.17-0.03-0.383 0.19-0.318 0.39 0.569 0.59 1.296 1.33 1.981 2.08 0.828 0.9 1.403 1.55 2.031 2.29 0.175 0.06 0.39-0.13 0.351-0.35l-0.201-0.3c-0.698-0.99-0.688-1.16-0.207-2.34l3.01-7.36c0.315-0.8 0.704-1.57 1.019-2.37 0-0.13-0.043-0.25-0.171-0.39-0.032-0.04-1.076-0.13-1.721-0.66zm139.51 0.87c0.51 0.05 0.98 0.26 1.35 0.62 1.17 1.12 1.03 2.46-0.58 4.12-0.78 0.81-0.81 0.79-1.2 0.41l-2.57-2.48c-0.57-0.55-0.59-0.6 0.26-1.48 0.89-0.92 1.88-1.28 2.74-1.19zm-59.47 0.28c-0.38 0.02-0.81 0.09-1.29 0.19-1.23 0.27-2.04 0.51-2.54 0.66-0.08 0.08-0.04 0.26 0.06 0.32l0.3-0.03c0.54-0.06 0.58 0.08 0.81 1.16l0.9 4.12c0.26 1.19 0.17 1.25-0.35 1.43l-0.24 0.09c-0.06 0.09 0 0.29 0.1 0.32 0.49-0.13 1.01-0.26 1.51-0.37 0.43-0.09 0.91-0.16 1.4-0.26 1.29-0.29 1.99-0.64 2.42-1.19 0.43-0.53 0.47-1.13 0.36-1.65-0.27-1.27-1.35-1.62-2.24-1.57-0.07 0-0.1-0.02-0.1-0.04-0.01-0.03 0.01-0.06 0.05-0.09 0.73-0.43 1.11-1.04 0.96-1.7-0.15-0.71-0.52-1.1-1.11-1.29-0.28-0.1-0.62-0.12-1-0.1zm-15.55 0.05c-0.09 0.04-0.12 0.24-0.05 0.33l0.18 0.04c0.53 0.13 0.64 0.17 0.53 1.39l-0.38 4.27c-0.11 1.21-0.22 1.24-0.76 1.25l-0.43 0.01c-0.09 0.07-0.1 0.28-0.01 0.33 0.52 0.02 1.22 0.07 1.73 0.12l1.3 0.12c1.35 0.12 2.33 0.22 2.83 0.28 0.19-0.29 0.52-1.14 0.64-1.62-0.06-0.12-0.26-0.17-0.37-0.1-0.48 0.89-0.76 1.2-2.22 1.05-0.96-0.08-1.15-0.19-1.27-0.37-0.15-0.21-0.14-0.62-0.09-1.21l0.13-1.45c0.03-0.29 0.04-0.31 0.3-0.29l0.55 0.05c1 0.09 1.19 0.13 1.23 0.62l0.04 0.46c0.09 0.08 0.31 0.1 0.37 0.02 0.02-0.36 0.03-0.77 0.07-1.2s0.1-0.84 0.14-1.15c-0.05-0.09-0.27-0.11-0.37-0.04l-0.11 0.38c-0.13 0.49-0.32 0.48-1.32 0.39l-0.55-0.05c-0.26-0.02-0.28-0.03-0.25-0.33l0.17-1.94c0.06-0.65 0.06-0.68 0.56-0.63l0.77 0.07c0.31 0.03 0.65 0.08 0.9 0.18 0.36 0.13 0.51 0.43 0.64 1.11 0.08 0.08 0.31 0.07 0.37-0.01-0.03-0.5-0.02-1.42-0.05-1.62-0.15 0.01-0.81-0.03-1.55-0.1l-2.19-0.19c-0.5-0.05-1.04-0.11-1.48-0.17zm-65.685 0.38l0.032 0.03c-0.009 0.17-0.153 0.49-0.553 1.4l-0.852 2.13c-0.176 0.41-0.265 0.37-0.711-0.12l-1.656-1.8c-0.382-0.42-0.43-0.47 0.112-0.62l2.152-0.63c0.881-0.23 1.325-0.38 1.476-0.39zm80.745 0.14c0.53 0.05 1.03 0.37 1.19 1.11 0.22 1.02-0.17 1.54-1.23 1.77-0.45 0.1-0.49 0.09-0.55-0.2l-0.44-2.04c-0.1-0.45-0.07-0.48 0.49-0.6 0.17-0.04 0.36-0.05 0.54-0.04zm-108.95 1.67c-0.547 0.03-1.098 0.21-1.582 0.57-1.29 0.93-1.524 2.69-0.586 3.87 0.938 1.29 2.697 1.64 3.987 0.7 1.173-0.93 1.527-2.7 0.588-3.99-0.587-0.8-1.494-1.2-2.407-1.15zm196.24 0.39c-0.88-0.01-1.79 0.43-2.38 1.23-0.94 1.18-0.7 2.94 0.59 3.87 1.29 0.94 3.05 0.71 3.99-0.58s0.59-3.05-0.71-3.99c-0.44-0.35-0.96-0.52-1.49-0.53zm-86.75 1.17c1.02-0.07 1.77 0.46 1.99 1.47 0.22 1-0.36 1.66-1.14 1.83-0.98 0.21-1.18-0.18-1.4-1.2l-0.36-1.62c-0.05-0.23-0.04-0.3 0.46-0.41 0.16-0.03 0.31-0.06 0.45-0.07zm-73.894 1.8c-0.151 0.05-0.258 0.23-0.201 0.36l0.26 0.25c0.238 0.23 0.699 0.72 0.822 1 0.371 0.87 0.194 1.08-0.574 2.18l-2.338 3.33c-0.779 1.11-1.636 2.34-2.192 2.6-0.293 0.13-0.68-0.06-1.076-0.27l-0.472-0.23c-0.224-0.01-0.353 0.26-0.248 0.44 0.693 0.44 1.224 0.79 2.035 1.36 0.731 0.52 1.474 1.06 2.168 1.59 0.223 0.09 0.427-0.16 0.324-0.38l-0.395-0.34c-0.443-0.4-0.711-0.71-0.738-1.04-0.032-0.66 0.858-1.97 1.598-3.02l1.922-2.75c0.523-0.74 0.631-0.9 0.689-0.86 0.18 0.44 0.421 1.41 0.953 3.32l1.881 6.93c0.58 2.13 0.802 3 0.904 3.51 0.223 0.18 0.532 0.31 0.793 0.27 0.171-0.37 1.382-2.1 1.678-2.52l2.357-3.36c0.781-1.12 1.635-2.34 2.211-2.59 0.293-0.13 0.66 0.04 1.057 0.26l0.492 0.24c0.224 0.01 0.353-0.25 0.248-0.43-0.713-0.46-1.225-0.8-2.054-1.38-0.753-0.53-1.457-1.05-2.188-1.6-0.223-0.1-0.427 0.16-0.324 0.38l0.414 0.35c0.443 0.4 0.691 0.7 0.717 1.03 0.05 0.67-0.837 1.98-1.576 3.03l-1.922 2.74c-0.159 0.23-0.207 0.3-0.295 0.3-0.135-0.22-0.88-2.97-1.237-4.19l-0.863-2.87c-0.301-1.01-1.159-4.26-1.064-5.1-0.483-0.29-0.956-0.6-1.358-0.89-0.484-0.34-1.551-1.07-2.246-1.64-0.056-0.02-0.112-0.02-0.162-0.01zm-31.892 1.71c-0.552 0.05-1.09 0.26-1.53 0.66-1.173 0.94-1.409 2.7-0.353 3.87 0.939 1.29 2.7 1.41 3.873 0.47 1.29-0.94 1.406-2.7 0.468-3.99-0.586-0.73-1.54-1.1-2.458-1.01zm188.79 0.35c-0.89-0.09-1.79 0.28-2.38 1.01-1.06 1.29-0.82 3.05 0.35 3.99 1.18 1.06 3.05 0.82 3.99-0.35 0.94-1.29 0.82-3.05-0.47-3.99-0.44-0.4-0.96-0.61-1.49-0.66zm-37.41 2.2c-0.12-0.01-0.25 0.02-0.4 0.13-0.04 0.03-0.25 1.05-0.85 1.64 0.23 0.19 0.3 0.65 0.38 1.27l1 6.85c0.15 1.04 0.27 1.84 0.3 2.37 0.05 0.67-0.07 0.94-0.58 1.4l-0.52 0.49c-0.04 0.22 0.13 0.42 0.31 0.39 0.65-0.52 1.23-0.96 1.85-1.42 0.79-0.55 1.42-1.01 2.05-1.43 0.11-0.16-0.05-0.43-0.25-0.43l-0.61 0.34c-0.75 0.44-0.85 0.45-1.07-0.64l-0.44-2.24c-0.1-0.5-0.12-0.48 0.38-0.85l2.52-1.84c0.54-0.39 0.59-0.43 1.06-0.19l2.26 1.23c0.69 0.42 0.69 0.54 0.05 1.1l-0.39 0.35c-0.05 0.16 0.15 0.4 0.35 0.36 0.66-0.51 1.47-1.15 2.29-1.74 0.99-0.72 1.7-1.22 2.5-1.76 0.08-0.17-0.09-0.4-0.31-0.39l-0.32 0.17c-1.06 0.58-1.22 0.55-2.34-0.06l-6.98-3.82c-0.76-0.4-1.48-0.87-2.24-1.28zm-146.88 2.26c-0.719-0.02-1.453 0.25-2.04 0.78-1.173 0.93-1.289 2.81-0.234 3.98 1.056 1.06 2.814 1.18 3.988 0.12 1.173-0.94 1.29-2.81 0.235-3.99-0.528-0.58-1.231-0.88-1.949-0.89zm179.75 0.39c-0.71 0.03-1.42 0.33-1.94 0.85-1.06 1.18-0.94 3.05 0.23 3.99 1.17 1.06 2.93 1.06 3.99-0.11 1.05-1.18 0.94-2.94-0.24-3.99-0.58-0.53-1.32-0.77-2.04-0.74zm-32.65 0.45c0.17 0.03 0.47 0.21 1.33 0.71l2.01 1.08c0.4 0.22 0.34 0.31-0.19 0.7l-1.98 1.44c-0.45 0.33-0.51 0.37-0.59-0.18l-0.39-2.21c-0.13-0.9-0.23-1.36-0.23-1.52l0.04-0.02zm-101.98 3.66c-0.045-0.01-0.085-0.01-0.118 0-0.41 0.47-1.191 1.28-1.955 1.94 0.01 0.2 0.433 0.46 0.627 0.44 1.391-0.88 2.046-0.77 3.996 0.17l1.186 0.58c0.554 0.26 0.559 0.3 0.246 0.96l-3.228 6.69c-0.79 1.65-1.007 1.6-2.032 1.18l-0.929-0.35c-0.184 0-0.314 0.33-0.174 0.47 1.371 0.62 2.378 1.09 3.31 1.54 0.934 0.45 1.88 0.93 3.096 1.55 0.199 0.02 0.355-0.25 0.258-0.43l-0.733-0.43c-0.961-0.56-1.128-0.69-0.336-2.34l3.227-6.7c0.314-0.65 0.35-0.67 0.902-0.4l1.207 0.58c2.271 1.09 2.534 1.58 2.227 2.93 0.139 0.2 0.512 0.34 0.68 0.27 0.172-0.53 0.986-1.78 1.504-2.31-0.02-0.07-0.111-0.15-0.237-0.21-0.083-0.04-0.185-0.06-0.285-0.07-0.427 0.24-0.769 0.13-1.807-0.37l-8.654-4.18c-1.441-0.69-1.731-0.85-1.65-1.29-0.021-0.07-0.097-0.12-0.182-0.17-0.052-0.02-0.102-0.04-0.146-0.05zm-40.901 0.09c-0.718 0-1.45 0.29-2.037 0.88-1.057 1.05-1.057 2.82 0 3.99 1.173 1.05 2.932 1.05 3.988 0 1.173-1.17 1.173-2.94 0-3.99-0.528-0.59-1.232-0.88-1.951-0.88zm171.31 0.35c-0.72 0-1.42 0.3-1.95 0.88-1.17 1.06-1.17 2.81 0 3.99 1.06 1.05 2.82 1.05 3.99 0 1.06-1.18 1.06-2.93 0-3.99-0.59-0.58-1.32-0.88-2.04-0.88zm-37.97 0.38c-1.15 0.01-2.65 0.52-4.46 1.32-2.37 1.04-3.91 1.8-4.85 2.29-0.14 0.16-0.03 0.41 0.17 0.45l0.58-0.19c1.05-0.37 1.15-0.19 1.81 1.32l2.53 5.77c0.73 1.67 0.55 1.81-0.42 2.35l-0.45 0.25c-0.11 0.18 0.04 0.45 0.24 0.44 0.93-0.45 1.94-0.91 2.89-1.33 0.82-0.36 1.75-0.7 2.69-1.12 2.46-1.08 3.77-1.97 4.51-3.03 0.74-1.02 0.72-1.95 0.4-2.67-0.78-1.79-2.95-1.75-4.67-1.23-0.14 0.03-0.2 0.02-0.21-0.01-0.02-0.03 0.01-0.1 0.08-0.16 1.35-1.02 1.97-2.14 1.56-3.07-0.43-0.99-1.22-1.39-2.4-1.38zm-2.32 1.42c0.86-0.04 1.64 0.27 2.02 1.13 0.62 1.42-0.05 2.41-2.07 3.3-0.87 0.38-0.94 0.39-1.12-0.02l-1.24-2.85c-0.28-0.63-0.23-0.69 0.85-1.17 0.5-0.22 1.04-0.36 1.56-0.39zm-126.53 2.23c-0.718 0.05-1.423 0.37-1.951 0.96-1.056 1.17-0.938 2.93 0.118 3.98 1.174 1.06 3.049 0.94 3.988-0.23 1.055-1.17 1.056-2.93-0.117-3.99-0.587-0.53-1.319-0.76-2.038-0.72zm162.38 0.36c-0.74-0.05-1.5 0.19-2.08 0.71-1.18 1.06-1.18 2.82-0.12 3.99 0.94 1.18 2.81 1.29 3.99 0.24 1.05-1.06 1.17-2.82 0.11-3.99-0.47-0.59-1.17-0.91-1.9-0.95zm-33.12 1.8c1.21-0.03 2.13 0.47 2.57 1.48 0.62 1.41-0.39 2.69-1.87 3.35-1.88 0.82-2.35 0.33-2.98-1.11l-0.99-2.27c-0.14-0.31-0.14-0.42 0.81-0.84 0.9-0.39 1.73-0.6 2.46-0.61zm-16.41 0.72c-1.11-0.09-2.69 0.22-4.45 0.76-1.84 0.56-3.74 1.2-5.13 1.74-0.16 0.13-0.08 0.4 0.12 0.46l0.6-0.13c1.08-0.24 1.16-0.05 1.65 1.53l1.83 6.03c0.54 1.74 0.35 1.85-0.68 2.27l-0.48 0.2c-0.17 0.18-0.01 0.46 0.19 0.47 1.03-0.35 2.03-0.68 3.03-0.99 0.99-0.3 2-0.59 3-0.86 0.16-0.12 0.1-0.43-0.1-0.5l-0.51 0.11c-1.08 0.22-1.3 0.24-1.84-1.51l-0.64-2.1c-0.1-0.35-0.09-0.37 0.59-0.58 0.74-0.23 1.01-0.24 1.57 0.13 0.73 0.48 1.64 1.19 2.46 1.69 1.84 1.11 3.21 1.39 5.36 0.73 0.79-0.24 1.21-0.43 1.46-0.56 0.04-0.1-0.01-0.28-0.15-0.31-0.27 0.06-0.95 0.17-1.7-0.03-1.26-0.32-2.81-1.38-5.29-3.04-0.12-0.07-0.21-0.19-0.09-0.28 1.01-0.67 2.38-1.92 1.91-3.43-0.36-1.19-1.43-1.7-2.71-1.8zm-56.611 1.06c-0.047-0.01-0.984 0.46-1.811 0.36-0.008 0.31-0.323 0.65-0.763 1.1l-4.729 5.05c-0.723 0.77-1.279 1.36-1.668 1.72-0.491 0.45-0.781 0.53-1.459 0.42l-0.705-0.1c-0.201 0.1-0.246 0.36-0.109 0.48 0.805 0.19 1.515 0.37 2.263 0.57 0.928 0.27 1.679 0.47 2.397 0.71 0.2-0.02 0.305-0.31 0.178-0.47l-0.635-0.26c-0.819-0.32-0.898-0.39-0.176-1.24l1.477-1.74c0.328-0.39 0.305-0.4 0.896-0.24l3.024 0.83c0.637 0.17 0.704 0.19 0.81 0.7l0.451 2.55c0.101 0.79 0.005 0.87-0.832 0.72l-0.513-0.09c-0.165 0.06-0.224 0.37-0.063 0.5 0.8 0.2 1.809 0.44 2.788 0.71 1.18 0.32 2.02 0.56 2.94 0.85 0.18-0.04 0.26-0.32 0.11-0.49l-0.33-0.14c-1.12-0.46-1.2-0.61-1.42-1.87l-1.37-7.84c-0.16-0.84-0.24-1.7-0.4-2.55-0.07-0.11-0.169-0.19-0.351-0.24zm54.001 0.07c1.27 0.02 2.19 0.71 2.48 1.68 0.48 1.57-0.29 2.67-2.5 3.35-1.08 0.33-1.09 0.29-1.25-0.23l-1.04-3.42c-0.24-0.76-0.23-0.82 0.94-1.18 0.49-0.15 0.95-0.21 1.37-0.2zm-105.09 0.13c-0.913-0.06-1.82 0.31-2.406 1.04-0.939 1.17-0.822 3.05 0.351 3.99 1.291 0.94 3.049 0.82 3.989-0.47 1.056-1.17 0.819-2.93-0.354-3.99-0.484-0.35-1.032-0.54-1.58-0.57zm152.04 0.32c-0.55 0.05-1.1 0.25-1.59 0.6-1.17 0.94-1.4 2.82-0.35 3.99 0.94 1.17 2.7 1.41 3.87 0.47 1.29-1.06 1.41-2.82 0.47-3.99-0.58-0.81-1.49-1.15-2.4-1.07zm-102.94 1.81l0.047 0.01c0.081 0.15 0.135 0.5 0.282 1.49l0.408 2.25c0.073 0.45-0.027 0.45-0.664 0.28l-2.364-0.64c-0.546-0.15-0.613-0.17-0.232-0.59l1.484-1.67c0.623-0.67 0.918-1.04 1.039-1.13zm39.276 0.05c-0.04 0-0.73 0.8-1.53 1.02 0.11 0.28-0.06 0.72-0.29 1.3l-2.45 6.48c-0.38 0.98-0.67 1.74-0.89 2.23-0.28 0.6-0.52 0.79-1.19 0.94l-0.69 0.17c-0.14 0.18-0.09 0.43 0.08 0.5 0.82-0.14 1.54-0.25 2.31-0.34 0.96-0.11 1.73-0.2 2.49-0.26 0.18-0.09 0.16-0.4-0.02-0.5h-0.69c-0.87 0.02-0.97-0.02-0.63-1.09l0.71-2.16c0.15-0.49 0.13-0.49 0.74-0.56l3.11-0.39c0.65-0.08 0.72-0.09 1.01 0.34l1.39 2.19c0.39 0.7 0.34 0.81-0.5 0.98l-0.51 0.11c-0.12 0.13-0.06 0.43 0.14 0.49 0.81-0.12 1.84-0.28 2.84-0.4 1.22-0.15 2.08-0.25 3.05-0.33 0.15-0.11 0.12-0.4-0.09-0.49l-0.35-0.01c-1.21-0.01-1.35-0.11-2.03-1.19l-4.25-6.74c-0.47-0.72-0.87-1.48-1.34-2.2-0.11-0.08-0.23-0.12-0.42-0.09zm-21.83 0.75c-0.19 0.08-0.21 0.35-0.05 0.48l0.61 0.08c1.1 0.14 1.12 0.35 1.03 2l-0.32 6.28c-0.09 1.82-0.31 1.86-1.42 1.91l-0.52 0.02c-0.17 0.12-0.16 0.43 0.02 0.5 1.04 0.02 2.15 0.06 3.18 0.12 0.9 0.04 1.88 0.14 2.92 0.19 2.68 0.14 4.25-0.07 5.39-0.69 1.12-0.58 1.51-1.42 1.55-2.2 0.1-1.94-1.86-2.89-3.64-3.19-0.14-0.04-0.18-0.07-0.18-0.11 0-0.03 0.05-0.08 0.15-0.09 1.66-0.31 2.72-1.04 2.77-2.05 0.06-1.08-0.48-1.8-1.54-2.31-1.03-0.5-2.61-0.72-4.58-0.82-2.59-0.13-4.31-0.13-5.37-0.12zm4.97 0.8c0.18 0 0.4 0.01 0.7 0.02 1.46 0.07 2.95 0.75 2.87 2.26-0.08 1.55-1.12 2.13-3.33 2.02-0.94-0.05-1.01-0.07-0.99-0.51l0.16-3.11c0.03-0.52 0.07-0.66 0.59-0.68zm-66.591 0.15c-0.913-0.05-1.822 0.34-2.409 1.15-0.939 1.29-0.702 3.05 0.588 3.99 1.291 0.94 3.05 0.58 3.989-0.71 0.938-1.17 0.587-2.93-0.586-3.87-0.484-0.35-1.034-0.54-1.582-0.56zm142.18 0.27c-0.55 0-1.1 0.17-1.58 0.53-1.3 0.93-1.53 2.7-0.59 3.98 0.94 1.3 2.7 1.53 3.87 0.59 1.29-0.94 1.64-2.7 0.7-3.87-0.58-0.81-1.49-1.25-2.4-1.23zm-59.62 0.93c0.13 0.1 0.31 0.41 0.82 1.27l1.23 1.92c0.24 0.39 0.15 0.44-0.5 0.52l-2.44 0.3c-0.56 0.07-0.63 0.08-0.43-0.45l0.74-2.12c0.32-0.85 0.45-1.3 0.53-1.44h0.05zm-77.511 2.39c-0.902 0.02-1.784 0.5-2.296 1.31-0.94 1.29-0.471 3.05 0.82 3.87 1.29 0.83 3.051 0.47 3.873-0.82s0.468-3.05-0.822-3.87c-0.484-0.35-1.033-0.51-1.575-0.49zm132.08 0.28c-0.55 0-1.1 0.14-1.58 0.45-1.41 0.82-1.76 2.58-0.94 3.87 0.94 1.29 2.7 1.76 3.99 0.82 1.29-0.82 1.65-2.58 0.82-3.87-0.51-0.81-1.39-1.25-2.29-1.27zm-70.87 0.93c0.15-0.01 0.35-0.01 0.61 0 2.61 0.14 4.2 1.27 4.11 3.04-0.07 1.53-1.55 2.22-3.17 2.14-2.05-0.1-2.25-0.75-2.17-2.31l0.12-2.47c0.02-0.26 0.05-0.38 0.5-0.4zm-55.933 2.13c-0.903 0.08-1.782 0.57-2.295 1.37-0.822 1.41-0.352 3.05 1.055 3.88 1.291 0.82 3.052 0.35 3.873-1.06 0.821-1.29 0.351-3.05-1.057-3.87-0.484-0.26-1.035-0.36-1.576-0.32zm121.51 0.24c-0.53-0.05-1.08 0.05-1.57 0.31-1.41 0.82-1.87 2.58-1.05 3.87 0.7 1.41 2.46 1.88 3.87 1.06 1.29-0.7 1.76-2.46 0.94-3.87-0.44-0.81-1.3-1.29-2.19-1.37zm-115.57 2.82c-1.072-0.1-2.194 0.43-2.722 1.48-0.705 1.41-0.119 3.17 1.171 3.87 1.408 0.71 3.169 0.12 3.873-1.29s0.118-3.05-1.291-3.75c-0.322-0.18-0.673-0.28-1.031-0.31zm109.57 0.18c-0.36 0.04-0.73 0.16-1.08 0.36-1.41 0.71-2 2.35-1.18 3.76 0.71 1.41 2.35 1.99 3.76 1.29 1.41-0.82 1.99-2.47 1.29-3.87-0.62-1.06-1.69-1.65-2.79-1.54zm-103.99 2.5c-1.088 0.02-2.146 0.68-2.674 1.73-0.586 1.41 0.001 3.05 1.409 3.76 1.525 0.58 3.166-0.12 3.754-1.53 0.704-1.4-0.001-3.05-1.409-3.75-0.351-0.15-0.717-0.21-1.08-0.21zm98.42 0.22c-0.37 0.01-0.76 0.08-1.14 0.22-1.41 0.71-2 2.35-1.41 3.76 0.7 1.41 2.35 2.11 3.76 1.4 1.4-0.58 2.1-2.22 1.4-3.75-0.44-1.05-1.47-1.65-2.61-1.63zm-92.736 2.25c-1.128 0.02-2.141 0.7-2.492 1.85-0.587 1.4 0.118 3.05 1.525 3.63 1.526 0.59 3.167-0.23 3.754-1.64 0.47-1.41-0.236-3.05-1.643-3.64-0.381-0.14-0.768-0.21-1.144-0.2zm87.036 0.13c-0.36-0.02-0.72 0.04-1.07 0.19-1.53 0.59-2.23 2.23-1.65 3.64 0.47 1.52 2.11 2.23 3.64 1.64 1.41-0.47 2.11-2.11 1.64-3.64-0.44-1.05-1.47-1.78-2.56-1.83zm-81.171 2c-1.127 0.05-2.14 0.8-2.492 1.94-0.469 1.53 0.351 3.05 1.877 3.52 1.408 0.47 3.05-0.23 3.519-1.76 0.47-1.52-0.351-3.05-1.759-3.52-0.382-0.14-0.769-0.2-1.145-0.18zm75.311 0.18c-0.36-0.03-0.73 0-1.08 0.12-1.52 0.47-2.35 2-1.88 3.52 0.47 1.53 2.11 2.35 3.64 1.88 1.41-0.47 2.23-2.11 1.76-3.64-0.35-1.05-1.36-1.78-2.44-1.88zm-68.87 1.65c-1.317-0.11-2.523 0.77-2.832 2.11-0.468 1.41 0.469 3.05 1.995 3.4 1.406 0.47 3.05-0.47 3.402-1.99 0.469-1.53-0.471-3.05-1.996-3.41-0.191-0.05-0.38-0.09-0.569-0.11zm62.38 0.12c-0.19 0.02-0.38 0.05-0.57 0.11-1.53 0.35-2.35 1.88-2 3.4 0.36 1.53 2 2.47 3.52 2 1.41-0.35 2.35-1.88 2-3.4-0.41-1.34-1.63-2.22-2.95-2.11zm-56.391 1.33c-1.296-0.01-2.412 0.97-2.721 2.3-0.353 1.53 0.586 2.93 2.111 3.29 1.521 0.35 3.051-0.59 3.401-2.12 0.35-1.52-0.7-3.04-2.23-3.4-0.188-0.04-0.376-0.06-0.561-0.07zm50.411 0.12c-0.19 0-0.38 0.03-0.58 0.07-1.52 0.35-2.58 1.76-2.22 3.28 0.35 1.53 1.87 2.59 3.4 2.23 1.52-0.35 2.46-1.76 2.11-3.4-0.21-1.33-1.4-2.22-2.71-2.18zm-44.31 1.1c-1.29 0.06-2.4 1.04-2.61 2.37-0.23 1.53 0.83 2.93 2.35 3.17 1.53 0.23 2.93-0.7 3.17-2.35 0.23-1.52-0.82-2.93-2.35-3.17-0.19-0.02-0.37-0.03-0.56-0.02zm38.2 0c-0.19-0.01-0.37 0-0.56 0.02-1.53 0.24-2.59 1.76-2.35 3.29 0.23 1.53 1.64 2.58 3.17 2.35 1.52-0.24 2.58-1.65 2.34-3.29-0.2-1.33-1.31-2.31-2.6-2.37zm-32.02 0.82c-1.35 0.09-2.36 1.15-2.57 2.49-0.11 1.53 0.94 2.93 2.59 3.17 1.52 0.12 2.93-0.94 3.04-2.58 0.12-1.53-0.93-2.94-2.46-3.05-0.2-0.03-0.4-0.04-0.6-0.03zm25.24 0.03c-1.53 0.23-2.58 1.52-2.47 3.16 0.12 1.53 1.53 2.7 3.05 2.47 1.65-0.12 2.7-1.53 2.58-3.05-0.11-1.65-1.52-2.7-3.16-2.58zm-18.54 0.47c-1.52-0.12-2.81 1.05-2.93 2.69-0.12 1.53 1.05 2.82 2.7 2.94 1.52 0.11 2.81-1.06 2.93-2.7 0.12-1.53-1.06-2.82-2.7-2.93zm12.44 0c-1.53 0.11-2.82 1.4-2.7 3.05 0.12 1.52 1.41 2.69 2.93 2.58 1.64 0 2.82-1.41 2.7-2.94-0.12-1.52-1.41-2.69-2.93-2.69zm-5.99 0.35c-1.52-0.12-2.81 1.05-2.93 2.7-0.12 1.52 1.06 2.81 2.7 2.93 1.52 0.12 2.81-1.06 2.93-2.7 0.12-1.52-1.05-2.82-2.7-2.93z" transform="matrix(.8 0 0 -.8 206.8 496.9)" fill="#003660"/><path d="m305.03 464.2 4.3178 8.3526 0.28115-13.234-4.5989 4.881z" stroke="#003660" stroke-miterlimit="10" stroke-width=".18806" fill="#febc11"/><path d="m348.26 399.73c-0.0931 0.7494 0.84532 1.1265-1.8768 1.8768-0.99576 0.27457-4.5989 1.5007-5.8185-0.75034-1.1265-2.346-5.2552-4.1307-6.3826-6.9468-1.2186-2.8152-0.84437-4.3159-0.84437-4.3159s0.75129-8.6337 1.9718-10.323l0.37518 6.3817c0.4692 1.9708 1.0324 4.693 3.0964 5.9116 4.4118 2.7221 5.7254 2.8152 5.7254 2.8152s1.1255-4.4099 5.3493-5.9116c4.4109-1.5957 7.6013-2.158 13.045 3.2854 5.4442 5.4424 5.6323 5.0681 6.1015 7.1321 0.4692 1.9718-2.346 4.787-2.346 5.2562s-0.6582 4.4099 0 4.786c0.65632 0.28208-2.2529 0.28208-2.441-0.4692-0.18712-0.84532-1.1255-2.8152-0.84438-3.6605 0.37518-0.84438 1.9708-3.0023 1.9708-3.0023s-0.28209-1.9718-0.84438-2.441c-0.4692-0.4692-4.4118-0.18805-4.4118-1.6897 0-1.5007 0.84531 5.1612-0.37517 6.4767-1.1255 1.3126-3.2844 2.44-2.8152 3.9407 0.56229 1.5016-0.9384 3.4734-1.5947 3.4734-0.6582 0-2.1589-1.7837-1.5026-3.0973 0.65726-1.3145 2.1589-4.1297 1.7828-4.9741-0.28021-0.84531-1.3136-1.6888-0.65632-2.346 0.65632-0.6582 1.0324-3.9426 0.18711-4.4118-0.84437-0.56229-2.4391-1.8778-2.8152-1.0315-0.28208 0.84343-2.8152 0.4692-3.7536 0.4692-1.0324 0-4.0357-0.4692-4.0357-1.7847 0-0.65632-0.93841 3.6615-0.75129 3.8486 1.9718 2.346 4.6845-0.7447 4.5171 1.5289" stroke="#003660" stroke-miterlimit="10" stroke-width=".93840" fill="#fff"/></g></g></svg>
